<?xml version="1.0" encoding="utf-8"?>
<COLLADA xmlns="http://www.collada.org/2005/11/COLLADASchema" version="1.4.1" xmlns:xsi="http://www.w3.org/2001/XMLSchema-instance">
  <asset>
    <contributor>
      <author>Blender User</author>
      <authoring_tool>Blender 3.3.1 commit date:2022-10-04, commit time:18:35, hash:b292cfe5a936</authoring_tool>
    </contributor>
    <created>2024-03-01T14:45:34</created>
    <modified>2024-03-01T14:45:34</modified>
    <unit name="meter" meter="1"/>
    <up_axis>Z_UP</up_axis>
  </asset>
  <library_effects>
    <effect id="color_16089887-effect">
      <profile_COMMON>
        <newparam sid="Untitled-surface">
          <surface type="2D">
            <init_from>Untitled</init_from>
          </surface>
        </newparam>
        <newparam sid="Untitled-sampler">
          <sampler2D>
            <source>Untitled-surface</source>
          </sampler2D>
        </newparam>
        <technique sid="common">
          <lambert>
            <emission>
              <color sid="emission">0 0 0 1</color>
            </emission>
            <diffuse>
              <texture texture="Untitled-sampler" texcoord="UVMap"/>
            </diffuse>
            <index_of_refraction>
              <float sid="ior">1.45</float>
            </index_of_refraction>
          </lambert>
        </technique>
      </profile_COMMON>
    </effect>
  </library_effects>
  <library_images/>
  <library_materials>
    <material id="color_16089887-material" name="color_16089887">
      <instance_effect url="#color_16089887-effect"/>
    </material>
  </library_materials>
  <library_geometries>
    <geometry id="obj_0-mesh" name="obj_0">
      <mesh>
        <source id="obj_0-mesh-positions">
          <float_array id="obj_0-mesh-positions-array" count="1152">12.77799 19.12399 -1.500165 14.591 17.77899 -1.500165 16.26299 16.26299 -1.500165 -10.55701 15.79999 -1.500165 -8.958008 16.75899 -1.500165 -7.272007 17.55599 -1.500165 -12.05501 14.68899 0.4978352 -13.43701 13.43699 0.4978352 -14.68901 12.05499 0.4978352 -15.80001 10.55699 0.4978352 -5.516006 18.18399 -1.500165 -16.75901 8.957988 0.4978352 -17.55601 7.271987 0.4978352 -18.18401 5.515987 0.4978352 -18.63701 3.706987 0.4978352 -18.91101 1.862987 0.4978352 -19.00201 -1.23978e-5 0.4978352 7.271992 -17.55601 -1.500165 12.05499 14.68899 0.4978352 -19.00201 -1.23978e-5 -1.500165 -20.28401 10.84199 -1.500165 -20.28401 10.84199 1.499835 -18.91101 1.862987 -1.500165 -21.24901 8.801988 -1.500165 -21.24901 8.801988 1.499835 -18.63701 3.706987 -1.500165 -22.01001 6.676988 -1.500165 -22.01001 6.676988 1.499835 -18.18401 5.515987 -1.500165 -22.55801 4.486988 -1.500165 -22.55801 4.486988 1.499835 -17.55601 7.271987 -1.500165 -22.88901 2.253987 -1.500165 -22.88901 2.253987 1.499835 -16.75901 8.957988 -1.500165 -23.00001 -1.23978e-5 -1.500165 -23.00001 -1.23978e-5 1.499835 -15.80001 10.55699 -1.500165 -22.88901 -2.254012 -1.500165 -22.88901 -2.254012 1.499835 -22.55801 -4.487012 -1.500165 -22.55801 -4.487012 1.499835 -14.68901 12.05499 -1.500165 -22.01001 -6.677012 -1.500165 -22.01001 -6.677012 1.499835 17.55599 -7.272012 -1.500165 17.55599 -7.272012 -0.4971649 18.18399 -5.516013 -0.4971649 18.18399 -5.516013 -1.500165 -21.24901 -8.802013 -1.500165 -21.24901 -8.802013 1.499835 16.759 -8.958013 -1.500165 16.759 -8.958013 -0.4971649 -20.28401 -10.84201 -1.500165 -20.28401 -10.84201 1.499835 15.8 -10.55701 -1.500165 15.8 -10.55701 -0.4971649 -7.62939e-6 -23.00001 1.499835 -7.62939e-6 -23.00001 -1.500165 2.253994 -22.88901 -1.500165 2.253994 -22.88901 1.499835 14.689 -12.05501 -1.500165 14.689 -12.05501 -0.4971649 4.486992 -22.55801 -1.500165 4.486992 -22.55801 1.499835 13.43699 -13.43701 -1.500165 13.43699 -13.43701 -0.4971649 6.67699 -22.01001 -1.500165 6.67699 -22.01001 1.499835 8.801991 -21.24901 -1.500165 8.801991 -21.24901 1.499835 10.84199 -20.28401 -1.500165 10.84199 -20.28401 1.499835 -14.59101 -17.77901 -1.500165 18.911 -1.863013 -0.4971649 18.63699 -3.707013 -0.4971649 -14.59101 -17.77901 1.499835 18.911 -1.863013 0.4978352 18.911 -1.863013 1.499835 18.63699 -3.707013 0.4978352 18.63699 -3.707013 1.499835 18.18399 -5.516013 0.4978352 18.18399 -5.516013 1.499835 17.55599 -7.272012 0.4978352 17.55599 -7.272012 1.499835 -12.77801 -19.12401 -1.500165 -12.77801 -19.12401 1.499835 16.759 -8.958013 0.4978352 16.759 -8.958013 1.499835 -10.84201 -20.28401 -1.500165 -10.84201 -20.28401 1.499835 15.8 -10.55701 0.4978352 15.8 -10.55701 1.499835 -8.802006 -21.24901 -1.500165 -8.802006 -21.24901 1.499835 14.689 -12.05501 0.4978352 -6.677006 -22.01001 -1.500165 14.689 -12.05501 1.499835 -6.677006 -22.01001 1.499835 -4.487007 -22.55801 -1.500165 -4.487007 -22.55801 1.499835 13.43699 -13.43701 0.4978352 13.43699 -13.43701 1.499835 -2.254009 -22.88901 -1.500165 -2.254009 -22.88901 1.499835 -1.863007 -18.91101 -1.500165 -1.863007 -18.91101 -0.4971649 -7.62939e-6 -19.00301 -0.4971649 -7.62939e-6 -19.00301 -1.500165 -3.707008 -18.63701 -1.500165 -3.707008 -18.63701 -0.4971649 -5.516006 -18.18401 -1.500165 -5.516006 -18.18401 -0.4971649 12.77799 -19.12401 -1.500165 12.77799 -19.12401 1.499835 14.591 -17.77901 -1.500165 14.591 -17.77901 1.499835 5.515991 -18.18401 -1.500165 -17.77901 14.59099 -1.500165 5.515991 -18.18401 -0.4971649 3.706993 -18.63701 -1.500165 3.706993 -18.63701 -0.4971649 -17.77901 14.59099 1.499835 1.862991 -18.91101 -1.500165 1.862991 -18.91101 -0.4971649 -19.12401 12.77799 -1.500165 -19.12401 12.77799 1.499835 -19.12401 -12.77801 -1.500165 -7.62939e-6 -19.00301 0.4978352 -19.12401 -12.77801 1.499835 -1.863007 -18.91101 0.4978352 -1.863007 -18.91101 1.499835 -7.62939e-6 -19.00301 1.499835 -17.77901 -14.59101 -1.500165 -3.707008 -18.63701 0.4978352 -3.707008 -18.63701 1.499835 -5.516006 -18.18401 0.4978352 -5.516006 -18.18401 1.499835 -17.77901 -14.59101 1.499835 5.515991 -18.18401 0.4978352 5.515991 -18.18401 1.499835 -16.26301 -16.26301 -1.500165 3.706993 -18.63701 0.4978352 3.706993 -18.63701 1.499835 1.862991 -18.91101 0.4978352 1.862991 -18.91101 1.499835 -16.26301 -16.26301 1.499835 -13.43701 13.43699 -1.500165 -12.05501 14.68899 -1.500165 -7.272007 -17.55601 -1.500165 12.05499 14.68899 -1.500165 -7.272007 -17.55601 -0.4971649 -8.958008 -16.75901 -1.500165 -8.958008 -16.75901 -0.4971649 -10.55701 -15.80001 -1.500165 -10.55701 -15.80001 -0.4971649 -12.05501 -14.68901 -1.500165 -12.05501 -14.68901 -0.4971649 -13.43701 -13.43701 -1.500165 -13.43701 -13.43701 -0.4971649 -14.68901 -12.05501 -1.500165 -14.68901 -12.05501 -0.4971649 -15.80001 -10.55701 -1.500165 -15.80001 -10.55701 -0.4971649 -16.75901 -8.958013 -1.500165 -16.75901 -8.958013 -0.4971649 -17.55601 -7.272012 -1.500165 -17.55601 -7.272012 -0.4971649 -18.18401 -5.516013 -1.500165 -18.18401 -5.516013 -0.4971649 -18.63701 -3.707013 -1.500165 -18.63701 -3.707013 -0.4971649 -18.91101 -1.863013 -1.500165 -18.91101 -1.863013 -0.4971649 12.05499 -14.68901 -1.500165 12.05499 -14.68901 -0.4971649 10.55699 -15.80001 -1.500165 10.55699 -15.80001 -0.4971649 8.957993 -16.75901 -1.500165 8.957993 -16.75901 -0.4971649 7.271992 -17.55601 -0.4971649 -19.00201 -1.23978e-5 -0.4971649 16.26299 16.26299 1.499835 14.591 17.77899 1.499835 12.77799 19.12399 1.499835 -10.55701 15.79999 1.499835 -8.958008 16.75899 1.499835 -7.272007 17.55599 1.499835 -5.516006 18.18399 1.499835 16.26299 -16.26301 1.499835 17.77899 -14.59101 1.499835 -3.707008 18.63699 1.499835 -16.26301 16.26299 1.499835 22.88899 -2.254012 1.499835 -1.863007 18.91099 1.499835 -14.59101 17.77899 1.499835 19.12399 -12.77801 1.499835 20.28399 -10.84201 1.499835 21.24899 -8.802013 1.499835 22.01 -6.677012 1.499835 22.55799 -4.487012 1.499835 -7.62939e-6 19.00299 1.499835 1.862991 18.91099 1.499835 -7.272007 -17.55601 1.499835 3.706993 18.63699 1.499835 -8.958008 -16.75901 1.499835 5.515991 18.18399 1.499835 7.271992 17.55599 1.499835 -10.55701 -15.80001 1.499835 8.957993 16.75899 1.499835 -12.05501 -14.68901 1.499835 10.55699 15.79999 1.499835 -13.43701 -13.43701 1.499835 -14.68901 -12.05501 1.499835 -15.80001 -10.55701 1.499835 -7.62939e-6 22.99999 1.499835 -16.75901 -8.958013 1.499835 -2.254009 22.88899 1.499835 -4.487007 22.55799 1.499835 -6.677006 22.00999 1.499835 -8.802006 21.24899 1.499835 -10.84201 20.28399 1.499835 -12.77801 19.12399 1.499835 -17.55601 -7.272012 1.499835 10.84199 20.28399 1.499835 8.801991 21.24899 1.499835 6.67699 22.00999 1.499835 4.486992 22.55799 1.499835 2.253994 22.88899 1.499835 13.43699 13.43699 1.499835 14.689 12.05499 1.499835 15.8 10.55699 1.499835 16.759 8.957988 1.499835 17.55599 7.271987 1.499835 6.67699 22.00999 -1.500165 4.486992 22.55799 -1.500165 18.18399 5.515987 1.499835 2.253994 22.88899 -1.500165 18.63699 3.706987 1.499835 -7.62939e-6 22.99999 -1.500165 18.911 1.862987 1.499835 -2.254009 22.88899 -1.500165 17.77899 14.59099 1.499835 -18.91101 1.862987 -0.4971649 19.00299 -1.23978e-5 1.499835 -18.63701 3.706987 -0.4971649 -18.18401 5.515987 -0.4971649 22.99999 -1.23978e-5 1.499835 22.88899 2.253987 1.499835 22.55799 4.486988 1.499835 -17.55601 7.271987 -0.4971649 22.01 6.676988 1.499835 21.24899 8.801988 1.499835 20.28399 10.84199 1.499835 19.12399 12.77799 1.499835 -16.75901 8.957988 -0.4971649 -15.80001 10.55699 -0.4971649 -14.68901 12.05499 -0.4971649 -13.43701 13.43699 -0.4971649 -12.05501 14.68899 -0.4971649 -3.707008 18.63699 -1.500165 -16.26301 16.26299 -1.500165 -1.863007 18.91099 -1.500165 -14.59101 17.77899 -1.500165 12.05499 14.68899 -0.4971649 -7.62939e-6 19.00299 -1.500165 1.862991 18.91099 -1.500165 3.706993 18.63699 -1.500165 5.515991 18.18399 -1.500165 7.271992 17.55599 -1.500165 8.957993 16.75899 -1.500165 10.55699 15.79999 -1.500165 -12.77801 19.12399 -1.500165 -10.84201 20.28399 -1.500165 -8.802006 21.24899 -1.500165 -6.677006 22.00999 -1.500165 -4.487007 22.55799 -1.500165 8.801991 21.24899 -1.500165 10.84199 20.28399 -1.500165 13.43699 13.43699 -1.500165 14.689 12.05499 -1.500165 15.8 10.55699 -1.500165 16.759 8.957988 -1.500165 17.55599 7.271987 -1.500165 18.18399 5.515987 -1.500165 -7.272007 -17.55601 0.4978352 18.63699 3.706987 -1.500165 -8.958008 -16.75901 0.4978352 17.77899 14.59099 -1.500165 18.911 1.862987 -1.500165 19.00299 -1.23978e-5 -1.500165 -10.55701 -15.80001 0.4978352 -12.05501 -14.68901 0.4978352 -13.43701 -13.43701 0.4978352 19.12399 12.77799 -1.500165 20.28399 10.84199 -1.500165 21.24899 8.801988 -1.500165 22.01 6.676988 -1.500165 22.55799 4.486988 -1.500165 22.88899 2.253987 -1.500165 22.99999 -1.23978e-5 -1.500165 -14.68901 -12.05501 0.4978352 18.911 -1.863013 -1.500165 -15.80001 -10.55701 0.4978352 18.63699 -3.707013 -1.500165 -16.75901 -8.958013 0.4978352 -17.55601 -7.272012 0.4978352 -18.18401 -5.516013 0.4978352 -18.18401 -5.516013 1.499835 -18.63701 -3.707013 0.4978352 -18.63701 -3.707013 1.499835 -18.91101 -1.863013 0.4978352 -18.91101 -1.863013 1.499835 17.77899 -14.59101 -1.500165 16.26299 -16.26301 -1.500165 12.05499 -14.68901 0.4978352 12.05499 -14.68901 1.499835 22.88899 -2.254012 -1.500165 22.55799 -4.487012 -1.500165 22.01 -6.677012 -1.500165 21.24899 -8.802013 -1.500165 20.28399 -10.84201 -1.500165 10.55699 -15.80001 0.4978352 19.12399 -12.77801 -1.500165 10.55699 -15.80001 1.499835 8.957993 -16.75901 0.4978352 8.957993 -16.75901 1.499835 7.271992 -17.55601 0.4978352 7.271992 -17.55601 1.499835 -19.00201 -1.23978e-5 1.499835 -18.91101 1.862987 1.499835 -18.63701 3.706987 1.499835 -18.18401 5.515987 1.499835 -17.55601 7.271987 1.499835 -16.75901 8.957988 1.499835 -15.80001 10.55699 1.499835 -14.68901 12.05499 1.499835 -13.43701 13.43699 1.499835 -12.05501 14.68899 1.499835 12.05499 14.68899 1.499835 -10.55701 15.79999 -0.4971649 -8.958008 16.75899 -0.4971649 -7.272007 17.55599 -0.4971649 -5.516006 18.18399 -0.4971649 -3.707008 18.63699 -0.4971649 -1.863007 18.91099 -0.4971649 13.43699 13.43699 -0.4971649 -7.62939e-6 19.00299 -0.4971649 14.689 12.05499 -0.4971649 1.862991 18.91099 -0.4971649 15.8 10.55699 -0.4971649 16.759 8.957988 -0.4971649 3.706993 18.63699 -0.4971649 17.55599 7.271987 -0.4971649 5.515991 18.18399 -0.4971649 18.18399 5.515987 -0.4971649 7.271992 17.55599 -0.4971649 18.63699 3.706987 -0.4971649 8.957993 16.75899 -0.4971649 18.911 1.862987 -0.4971649 19.00299 -1.23978e-5 -0.4971649 10.55699 15.79999 -0.4971649 13.43699 13.43699 0.4978352 14.689 12.05499 0.4978352 -10.55701 15.79999 0.4978352 15.8 10.55699 0.4978352 -8.958008 16.75899 0.4978352 16.759 8.957988 0.4978352 -7.272007 17.55599 0.4978352 17.55599 7.271987 0.4978352 -5.516006 18.18399 0.4978352 18.18399 5.515987 0.4978352 18.63699 3.706987 0.4978352 -3.707008 18.63699 0.4978352 18.911 1.862987 0.4978352 -1.863007 18.91099 0.4978352 19.00299 -1.23978e-5 0.4978352 -7.62939e-6 19.00299 0.4978352 1.862991 18.91099 0.4978352 3.706993 18.63699 0.4978352 5.515991 18.18399 0.4978352 7.271992 17.55599 0.4978352 8.957993 16.75899 0.4978352 10.55699 15.79999 0.4978352</float_array>
          <technique_common>
            <accessor source="#obj_0-mesh-positions-array" count="384" stride="3">
              <param name="X" type="float"/>
              <param name="Y" type="float"/>
              <param name="Z" type="float"/>
            </accessor>
          </technique_common>
        </source>
        <source id="obj_0-mesh-normals">
          <float_array id="obj_0-mesh-normals-array" count="1329">0 0 -1 0 0 1 0 0 1 0 0 1 0 0 1 0 0 1 -0.9039631 0.4276106 0 -0.9039635 0.4276097 0 0 0 -1 -0.9414514 0.3371488 0 -0.9414507 0.3371508 0 -0.9700899 0.2427458 0 -0.9700905 0.2427437 0 -0.9891914 0.1466305 0 -0.9891921 0.1466261 0 -0.9987897 0.04918503 0 -0.9987896 0.0491873 0 0 0 -1 -0.9987897 -0.04918503 0 -0.9987896 -0.0491873 0 -0.9891921 -0.1466262 0 -0.9891914 -0.1466306 0 -0.9700905 -0.2427436 0 -0.97009 -0.2427458 0 -0.9415964 0.3367437 0 -0.9415964 0.3367437 0 -0.9414507 -0.3371508 0 -0.9414514 -0.3371488 0 -0.9039634 -0.4276099 0 -0.903963 -0.4276108 0 -0.9040766 0.4273706 0 -0.9040774 0.4273689 0 -0.8575873 0.5143386 0 -0.8575878 0.5143378 0 0.04918617 -0.9987896 0 -0.803206 0.5957013 0 -0.8032057 0.595702 0 0.1466296 -0.9891915 0 -0.7411016 0.6713929 0 -0.7411021 0.6713924 0 0.2427443 -0.9700904 0 0.3371493 -0.9414512 0 0.42761 -0.9039633 0 0.513974 -0.8578058 0 0 0 -1 -0.9891401 0.1469761 0 -0.9891397 0.1469781 0 -0.5958102 -0.8031253 0 -0.9700473 0.2429165 0 -0.9700477 0.2429146 0 -0.9415966 0.3367429 0 -0.9415967 0.336743 0 -0.5958108 -0.8031249 0 -0.9040767 0.4273705 0 -0.513974 -0.8578058 0 -0.5139744 -0.8578056 0 -0.8575878 0.5143377 0 -0.8575874 0.5143385 0 -0.42761 -0.9039633 0 -0.8032059 0.5957017 0 -0.8032059 0.5957017 0 -0.3371493 -0.9414512 0 -0.2427443 -0.9700904 0 -0.7411018 0.6713927 0 -0.7411019 0.6713927 0 -0.1466296 -0.9891915 0 -0.04918617 -0.9987896 0 0.04932212 0.9987829 0 0.04932212 0.9987829 0 0.1469753 0.9891402 0 0.1469752 0.9891402 0 0 0 1 0 0 1 0 0 1 0 0 1 0.2429158 0.9700475 0 0.2429158 0.9700474 0 0.5139744 -0.8578056 0 0.5958097 -0.8031257 0 0.6717023 -0.7408213 0 -0.3367431 0.9415966 0 -0.2429158 0.9700474 0 -0.2429158 0.9700474 0 -0.1469753 0.9891402 0 -0.1469752 0.9891402 0 -0.8031251 0.5958105 0 -0.04932212 0.998783 0 -0.8578054 0.5139749 0 -0.8578058 0.513974 0 -0.857806 -0.5139738 0 -0.8578054 -0.5139746 0 0.04932212 0.9987829 0 0.1469753 0.9891402 0 0.1469752 0.9891402 0 -0.8031251 -0.5958105 0 0.2429158 0.9700474 0 0.3367432 0.9415965 0 -0.2429159 0.9700474 0 -0.2429158 0.9700474 0 -0.1469753 0.9891402 0 -0.1469752 0.9891402 0 -0.04932212 0.998783 0 -0.7408218 -0.6717016 0 0 0 -1 -0.6717011 -0.7408223 0 -0.6717017 -0.7408218 0 0.3367431 0.9415966 0 0.3367431 0.9415966 0 0.4273701 0.9040768 0 0.5143393 0.8575869 0 0.5957018 0.8032057 0 0.6713902 0.7411041 0 0.6713907 0.7411037 0 0 0 -1 0.7411041 0.6713901 0 0.7411036 0.6713907 0 0.8032055 0.595702 0 0.8032061 0.5957013 0 0 0 -1 0 0 -1 0 0 -1 0 0 -1 0 0 -1 0 0 -1 0.8575878 0.5143378 0 0.8575873 0.5143386 0 0.9040766 0.4273706 0 0.9040758 0.4273722 0 0.9415964 0.3367437 0 0.9415964 0.3367437 0 0.9700471 0.242917 0 0.9700476 0.2429151 0 0.98914 0.1469764 0 0.9891403 0.1469745 0 0 0 -1 0.9988093 0.0487864 0 -0.6713911 0.7411032 0 -0.6713917 0.7411027 0 -0.5957018 0.8032057 0 -0.5143393 0.8575869 0 -0.4273701 0.9040768 0 -0.3367431 0.9415966 0 0 0 -1 -1.28072e-7 0 -1 -1.28062e-7 0 -1 1.28062e-7 0 -1 1.28072e-7 0 -1 0 0 -1 0.9988092 0.04878842 0 1.28062e-7 0 1 0 0 1 0 0 1 0 0 1 0 0 1 0 0 1 0 0 1 0 0 1 0 0 1 0 0 1 1.28072e-7 0 1 0 0 1 -1.28062e-7 0 1 -1.28072e-7 0 1 0 0 1 0 0 1 0 0 1 0.2427443 0.9700904 0 0.1466296 0.9891915 0 0 0 1 0.04918617 0.9987896 0 0 0 1 0.9988093 -0.0487864 0 0.9988092 -0.04878842 0 0.9891403 -0.1469745 0 0.98914 -0.1469764 0 0.9700475 -0.2429151 0 0.9700472 -0.242917 0 0.9415965 -0.3367434 0 0.9415965 -0.3367434 0 0 0 1 0 0 1 0.9040758 -0.4273723 0 0.9040765 -0.4273707 0 0.8575874 -0.5143384 0 0.8575879 -0.5143375 0 0 0 1 0.8032058 -0.5957016 0 0.8032055 -0.5957022 0 0 0 1 0.7411036 -0.6713907 0 0.7411041 -0.6713901 0 0.6713905 -0.7411038 0 0.671391 -0.7411034 0 0 0 -1 0 0 -1 -0.5957018 -0.8032057 0 -0.6713915 -0.7411029 0 1.28072e-7 0 -1 0 0 -1 0 0 -1 0 0 -1 0 0 -1 0 0 -1 -1.28072e-7 0 -1 0 0 -1 1.28082e-7 0 -1 0 0 -1 0 0 -1 0 0 -1 0 0 -1 0 0 -1 0.3367431 0.9415966 0 0.4273704 0.9040767 0 0.4273703 0.9040768 0 0 0 -1 0 0 -1 0.514339 0.8575869 0 0.5143396 0.8575866 0 0 0 -1 0.5957016 0.803206 0 0.5957015 0.803206 0 0.6713904 0.7411039 0 0.6713904 0.741104 0 0 0 -1 0 0 -1 0 0 -1 0 0 -1 0 0 -1 0.7411038 0.6713905 0 0.7411039 0.6713904 0 0.8032059 0.5957017 0 0.8032059 0.5957017 0 0.8575874 0.5143385 0 0.8575878 0.5143377 0 0 0 -1 0.9040758 0.4273721 0 0.9415966 0.3367429 0 0.9415967 0.336743 0 0.9700477 0.2429146 0 0.9700472 0.2429165 0 0.9891404 0.1469741 0 0.9891401 0.1469761 0 0.9988092 0.04878813 0 -0.6713914 0.741103 0 -0.6713914 0.7411031 0 -0.5957016 0.803206 0 -0.5957015 0.803206 0 0 0 -1 0 0 -1 -0.5143396 0.8575868 0 -0.5143391 0.8575869 0 0 0 -1 -0.4273702 0.9040768 0 -0.4273704 0.9040766 0 0 0 -1 -0.3367431 0.9415966 0 -1.28082e-7 0 -1 0.9988092 -0.04878813 0 0.9891401 -0.1469761 0 0.9891404 -0.1469741 0 0 0 -1 0.9700473 -0.2429165 0 0.9700477 -0.2429146 0 0 0 -1 0.9415968 -0.3367427 0 0.9415968 -0.3367428 0 0.9040759 -0.4273722 0 0.857588 -0.5143375 0 0.8575875 -0.5143383 0 0.8032056 -0.5957019 0 0.8032057 -0.595702 0 0.7411038 -0.6713905 0 0.7411039 -0.6713904 0 0.6713906 -0.7411037 0 0.6713907 -0.7411037 0 0 0 -1 0 0 -1 0.5957015 -0.803206 0 -0.5957015 -0.803206 0 -0.6713916 -0.7411028 0 0 0 1 0 0 1 0 0 1 0 0 1 0 0 1 0 0 1 0 0 1 0 0 1 0 0 1 0 0 1 0 0 1 -0.04918617 0.9987896 0 -0.1466296 0.9891915 0 -0.2427443 0.9700904 0 -0.33715 0.941451 0 -0.42761 0.9039633 0 -0.5139744 0.8578056 0 -0.513974 0.8578058 0 -0.5958097 0.8031258 0 -0.5958102 0.8031253 0 -0.6717016 0.7408219 0 -0.6717022 0.7408214 0 0.9987896 0.0491873 0 0.9987897 0.04918503 0 0.9891917 0.1466283 0 0.9891914 0.1466305 0 0.970091 0.2427416 0 0.9700905 0.2427437 0 0.9414507 0.3371508 0 0.9039627 0.4276115 0 -0.7408218 0.6717016 0 0.8578063 0.5139731 0 0.5957018 -0.8032057 0 0.5143381 -0.8575875 0 0.8031251 0.5958105 0 0.4273718 -0.904076 0 0.3367431 -0.9415966 0 0.3367431 -0.9415966 0 0.2429149 -0.9700477 0 0.2429148 -0.9700477 0 0.1469762 -0.98914 0 0.1469763 -0.98914 0 -0.671392 -0.7411025 0 0.04932212 -0.9987829 0 0.04932212 -0.9987829 0 -0.7411016 -0.6713929 0 -0.7411021 -0.6713924 0 -0.8032059 -0.5957016 0 -0.8032054 -0.5957022 0 -0.04932212 -0.998783 0 -0.8575874 -0.5143383 0 -0.8575879 -0.5143376 0 -0.1469763 -0.98914 0 -0.1469762 -0.98914 0 -0.9040765 -0.4273707 0 -0.9040774 -0.427369 0 -0.2429148 -0.9700476 0 -0.2429149 -0.9700477 0 -0.9415965 -0.3367434 0 -0.9415965 -0.3367434 0 -0.3367431 -0.9415966 0 -0.3367431 -0.9415966 0 -0.9700476 -0.2429151 0 -0.9700471 -0.242917 0 -0.98914 -0.1469764 0 -0.9891397 -0.1469784 0 -0.4273718 -0.904076 0 -0.9987831 -0.04931932 0 -0.9987831 -0.04931932 0 -0.5143381 -0.8575875 0 -0.9987831 0.04931932 0 0 0 -1 0 0 -1 -0.6713917 -0.7411028 0 0 0 -1 0 0 -1 0 0 -1 0 0 -1 0 0 -1 -0.7411019 -0.6713927 0 -0.7411018 -0.6713927 0 0.5957016 -0.803206 0 -0.8032057 -0.595702 0 -0.8032056 -0.5957019 0 0.514338 -0.8575876 0 0.5143384 -0.8575873 0 -0.857588 -0.5143375 0 -0.8575875 -0.5143383 0 0.4273721 -0.9040759 0 -0.9040766 -0.4273706 0 -0.9415968 -0.3367428 0 -0.9415968 -0.3367427 0 0.3367432 -0.9415965 0 0.3367431 -0.9415966 0 -0.9700472 -0.2429165 0 -0.9700477 -0.2429146 0 0.2429148 -0.9700477 0 -0.9891397 -0.1469781 0 -0.9891401 -0.1469761 0 0.1469763 -0.9891401 0 0.1469762 -0.9891401 0 -0.998783 -0.04932159 0 -0.9987831 -0.04931956 0 0.04932212 -0.9987829 0 -0.9987831 0.04931956 0 -0.9987829 0.04932159 0 -0.04932212 -0.998783 0 -0.1469763 -0.9891401 0 -0.1469762 -0.9891401 0 -0.2429149 -0.9700476 0 -0.2429148 -0.9700477 0 0 0 1 0 0 1 -0.3367431 -0.9415966 0 -0.4273719 -0.904076 0 -0.427372 -0.9040759 0 -0.5143384 -0.8575873 0 -0.514338 -0.8575877 0 0.7408218 -0.6717016 0 -0.5957016 -0.803206 0 0.8031251 -0.5958105 0 0.8578064 -0.5139729 0 0.9039626 -0.4276117 0 0.9414507 -0.3371508 0 0 0 1 0 0 1 0 0 1 0 0 1 0.9700905 -0.2427436 0 0.9700911 -0.2427415 0 0.9987897 -0.04918503 0 0.9891914 -0.1466306 0 0.9891917 -0.1466284 0 0.9987896 -0.0491873 0 0 0 1 -0.9987831 0.04931932 0 -0.9891397 0.1469784 0 -0.98914 0.1469764 0 0 0 1 -0.9700475 0.2429151 0 -0.9700472 0.242917 0 0 0 1 0 0 1 0 0 1 0 0 1 0 0 1 0 0 1 0 0 1 0 0 1 1.28072e-7 0 1 0 0 1 0 0 1 -1.28072e-7 0 1 0 0 1 0 0 1 0 0 1 0.7408218 0.6717016 0 0.6717027 0.7408208 0 0.5958091 0.8031261 0 0.5139744 0.8578056 0 0.513974 0.8578058 0 0.42761 0.9039633 0 0.33715 0.941451 0</float_array>
          <technique_common>
            <accessor source="#obj_0-mesh-normals-array" count="443" stride="3">
              <param name="X" type="float"/>
              <param name="Y" type="float"/>
              <param name="Z" type="float"/>
            </accessor>
          </technique_common>
        </source>
        <source id="obj_0-mesh-map-0">
          <float_array id="obj_0-mesh-map-0-array" count="4584">0.2565231 0 0.2544441 0.04249572 0.2324962 0 0.0540657 0.1764392 0.04831314 0.1954383 0.007026672 0.1851043 0.04831314 0.1954383 0.04444313 0.2149124 0.007026672 0.1851043 0.002346038 0.2086753 0.007026672 0.1851043 0.04444313 0.2149124 0.03957176 0.5706425 0.08153152 0.8536396 0.02853775 0.5871468 0.05216979 0.555296 0.08153152 0.8536396 0.03957176 0.5706425 0.06620216 0.5412579 0.08153152 0.8536396 0.05216979 0.555296 0.0815525 0.5286675 0.08153152 0.8536396 0.06620216 0.5412579 0.09806251 0.5176411 0.08153152 0.8536396 0.0815525 0.5286675 0.1155719 0.5082836 0.08153152 0.8536396 0.09806251 0.5176411 0.1339073 0.5006867 0.08153152 0.8536396 0.1155719 0.5082836 0.1529102 0.4949284 0.08153152 0.8536396 0.1339073 0.5006867 0.0191822 0.6046562 0.02853775 0.5871468 0.08153152 0.8536396 0.1240787 0.4070625 0.1405887 0.4180908 0.0987339 0.4412518 0.8720791 0.5880509 0.8720791 0.611042 0.8401415 0.611042 0.8720791 0.5880509 0.8401415 0.611042 0.8401415 0.5880509 0.08208847 0.3650932 0.03456115 0.3704777 0.07106399 0.3485909 0.8720791 0.611042 0.8720791 0.6346073 0.8401415 0.6346073 0.8720791 0.611042 0.8401415 0.6346073 0.8401415 0.611042 0.8720791 0.6346073 0.8720791 0.6585255 0.8401415 0.6585255 0.8720791 0.6346073 0.8401415 0.6585255 0.8401415 0.6346073 0.07106399 0.3485909 0.03456115 0.3704777 0.06170082 0.3310833 0.8720791 0.6585255 0.8720791 0.6825581 0.8401415 0.6825581 0.8720791 0.6585255 0.8401415 0.6825581 0.8401415 0.6585255 0.8720791 0.6825581 0.8720791 0.7064667 0.8401415 0.7064667 0.8720791 0.6825581 0.8401415 0.7064667 0.8401415 0.6825581 0.06170082 0.3310833 0.02322387 0.349287 0.05409622 0.3127442 0.8401415 0.7064667 0.8720791 0.7064667 0.8720791 0.7300301 0.8401415 0.7064667 0.8720791 0.7300301 0.8401415 0.7300301 0.8720791 0.7300301 0.8720791 0.753027 0.8401415 0.753027 0.8720791 0.7300301 0.8401415 0.753027 0.8401415 0.7300301 0.8720791 0.753027 0.8720791 0.7752342 0.8401415 0.7752342 0.8720791 0.753027 0.8401415 0.7752342 0.8401415 0.753027 0.967988 0.67412 0.9573101 0.67412 0.9573101 0.6546469 0.967988 0.67412 0.9573101 0.6546469 0.967988 0.6546469 0.8720791 0.7752342 0.8720791 0.796423 0.8401415 0.796423 0.8720791 0.7752342 0.8401415 0.796423 0.8401415 0.7752342 0.8720791 0.796423 0.8720791 0.8163986 0.8401415 0.8163986 0.8720791 0.796423 0.8401415 0.8163986 0.8401415 0.796423 0.967988 0.6931191 0.9573101 0.6931191 0.9573101 0.67412 0.967988 0.6931191 0.9573101 0.67412 0.967988 0.67412 0.967988 0.7114563 0.9573101 0.7114563 0.9573101 0.6931191 0.967988 0.7114563 0.9573101 0.6931191 0.967988 0.6931191 0.8720794 0.7064667 0.904017 0.7064667 0.904017 0.7300301 0.8720794 0.7064667 0.904017 0.7300301 0.8720794 0.7300301 0.967988 0.7289667 0.9573101 0.7289667 0.9573101 0.7114563 0.967988 0.7289667 0.9573101 0.7114563 0.967988 0.7114563 0.904017 0.753027 0.8720794 0.753027 0.8720794 0.7300301 0.904017 0.753027 0.8720794 0.7300301 0.904017 0.7300301 0.967988 0.7454758 0.9573101 0.7454758 0.9573101 0.7289667 0.967988 0.7454758 0.9573101 0.7289667 0.967988 0.7289667 0.904017 0.7752342 0.8720794 0.7752342 0.8720794 0.753027 0.904017 0.7752342 0.8720794 0.753027 0.904017 0.753027 0.904017 0.796423 0.8720794 0.796423 0.8720794 0.7752342 0.904017 0.796423 0.8720794 0.7752342 0.904017 0.7752342 0.904017 0.8163986 0.8720794 0.8163986 0.8720794 0.796423 0.904017 0.8163986 0.8720794 0.796423 0.904017 0.796423 0.8720794 0.8349724 0.8720794 0.8163986 0.904017 0.8163986 0.6743164 0.5006943 0.6160679 0.8932133 0.655323 0.4949265 0.6358509 0.4910545 0.655323 0.4949265 0.6160679 0.8932133 0.6926594 0.5082932 0.6160679 0.8932133 0.6743164 0.5006943 0.6160927 0.489111 0.6358509 0.4910545 0.6160679 0.8932133 0.5962391 0.489111 0.6160927 0.489111 0.6160679 0.8932133 0.9786657 0.6150427 0.9893329 0.6150427 0.9893329 0.6348896 0.9786657 0.6150427 0.9893329 0.6348896 0.9786657 0.6348896 0.8720794 0.5446587 0.904017 0.5446587 0.8720794 0.5658512 0.9893329 0.6546469 0.9786657 0.6546469 0.9786657 0.6348896 0.9893329 0.6546469 0.9786657 0.6348896 0.9893329 0.6348896 0.9893329 0.67412 0.9786657 0.67412 0.9786657 0.6546469 0.9893329 0.67412 0.9786657 0.6546469 0.9893329 0.6546469 0.904017 0.5658512 0.8720794 0.5658512 0.904017 0.5446587 0.9893329 0.6931191 0.9786657 0.6931191 0.9786657 0.67412 0.9893329 0.6931191 0.9786657 0.67412 0.9893329 0.67412 0.904017 0.5880509 0.8720794 0.5880509 0.8720794 0.5658512 0.904017 0.5880509 0.8720794 0.5658512 0.904017 0.5658512 0.9893329 0.7114563 0.9786657 0.7114563 0.9786657 0.6931191 0.9893329 0.7114563 0.9786657 0.6931191 0.9893329 0.6931191 0.904017 0.611042 0.8720794 0.611042 0.8720794 0.5880509 0.904017 0.611042 0.8720794 0.5880509 0.904017 0.5880509 0.9893329 0.7289667 0.9786657 0.7289667 0.9786657 0.7114563 0.9893329 0.7289667 0.9786657 0.7114563 0.9893329 0.7114563 0.904017 0.6346073 0.8720794 0.6346073 0.8720794 0.611042 0.904017 0.6346073 0.8720794 0.611042 0.904017 0.611042 0.904017 0.6585255 0.8720794 0.6585255 0.8720794 0.6346073 0.904017 0.6585255 0.8720794 0.6346073 0.904017 0.6346073 0.9893329 0.7454758 0.9786657 0.7454758 0.9786657 0.7289667 0.9893329 0.7454758 0.9786657 0.7289667 0.9893329 0.7289667 0.904017 0.6825581 0.8720794 0.6825581 0.8720794 0.6585255 0.904017 0.6825581 0.8720794 0.6585255 0.904017 0.6585255 0.904017 0.7064667 0.8720794 0.7064667 0.8720794 0.6825581 0.904017 0.7064667 0.8720794 0.6825581 0.904017 0.6825581 0.9786657 0.6150427 0.9679879 0.6150427 0.9679879 0.5952807 0.9786657 0.6150427 0.9679879 0.5952807 0.9786657 0.5952807 0.9786657 0.6348896 0.9679879 0.6348896 0.9679879 0.6150427 0.9786657 0.6348896 0.9679879 0.6150427 0.9786657 0.6150427 0.270195 0.8816376 0.251194 0.8874054 0.1529102 0.4949284 0.3645306 0.8116798 0.3519325 0.8270283 0.1529102 0.4949284 0.3519325 0.8270283 0.3379002 0.8410664 0.1529102 0.4949284 0.3379002 0.8410664 0.3225498 0.8536568 0.1529102 0.4949284 0.3225498 0.8536568 0.3060398 0.8646832 0.1529102 0.4949284 0.3060398 0.8646832 0.2885304 0.8740406 0.1529102 0.4949284 0.2885304 0.8740406 0.270195 0.8816376 0.1529102 0.4949284 0.9786657 0.6546469 0.9679879 0.6546469 0.9679879 0.6348896 0.9786657 0.6546469 0.9679879 0.6348896 0.9786657 0.6348896 0.904017 0.8349724 0.8720794 0.8349724 0.904017 0.8163986 0.8401415 0.5061073 0.8082039 0.5061073 0.8082039 0.489111 0.8401415 0.5061073 0.8082039 0.489111 0.8401415 0.489111 0.8401415 0.5061073 0.8401415 0.524683 0.8082039 0.5061073 0.9679879 0.5384731 0.9786657 0.5209618 0.9786657 0.5384731 0.9679879 0.5384731 0.9786657 0.5384731 0.9786657 0.5568152 0.9679879 0.5384731 0.9786657 0.5568152 0.9679879 0.5568152 0.9679879 0.5568152 0.9786657 0.5568152 0.9786657 0.5758057 0.9679879 0.5568152 0.9786657 0.5758057 0.9679879 0.5758057 0.8720791 0.5658512 0.8401415 0.5658512 0.8720791 0.5446587 0.9786657 0.5952807 0.9679879 0.5952807 0.9679879 0.5758057 0.9786657 0.5952807 0.9679879 0.5758057 0.9786657 0.5758057 0.8401415 0.5446587 0.8720791 0.5446587 0.8401415 0.5658512 0.8062649 0.6614971 0.7101421 0.8646832 0.8023968 0.6420193 0.796629 0.6230183 0.8023968 0.6420193 0.7101421 0.8646832 0.789032 0.6046829 0.796629 0.6230183 0.7101421 0.8646832 0.8082047 0.6812477 0.7101421 0.8646832 0.8062649 0.6614971 0.8082047 0.7011013 0.7101421 0.8646832 0.8082047 0.6812477 0.7560577 0.5553131 0.7686482 0.5706635 0.7101421 0.8646832 0.8720791 0.5658512 0.8720791 0.5880509 0.8401415 0.5880509 0.8720791 0.5658512 0.8401415 0.5880509 0.8401415 0.5658512 0.8720791 0.8163986 0.8720791 0.8349724 0.8401415 0.8349724 0.8720791 0.8163986 0.8401415 0.8349724 0.8401415 0.8163986 1 0.5952807 1 0.6150427 0.9893328 0.6150427 1 0.5952807 0.9893328 0.6150427 0.9893328 0.5952807 0.9893328 0.6150427 1 0.6150427 1 0.6348896 0.9893328 0.6150427 1 0.6348896 0.9893328 0.6348896 0.904017 0.5061073 0.8720794 0.5061073 0.904017 0.489111 0.9893328 0.6348896 1 0.6348896 1 0.6546469 0.9893328 0.6348896 1 0.6546469 0.9893328 0.6546469 0.9893328 0.6546469 1 0.6546469 0.9893328 0.67412 0.8720794 0.489111 0.904017 0.489111 0.8720794 0.5061073 0.9893328 0.5384731 1 0.5384731 1 0.5568152 0.9893328 0.5384731 1 0.5568152 0.9893328 0.5568152 0.9893328 0.5568152 1 0.5568152 1 0.5758057 0.9893328 0.5568152 1 0.5758057 0.9893328 0.5758057 0.9893328 0.5758057 1 0.5758057 1 0.5952807 0.9893328 0.5758057 1 0.5952807 0.9893328 0.5952807 0.8720794 0.524683 0.8720794 0.5061073 0.904017 0.524683 0.904017 0.5061073 0.904017 0.524683 0.8720794 0.5061073 0.4021626 0.6614971 0.1921367 0.489111 0.3982945 0.6420193 0.3925266 0.6230183 0.3982945 0.6420193 0.1921367 0.489111 0.4041023 0.6812477 0.1921367 0.489111 0.4021626 0.6614971 0.3849297 0.6046829 0.3925266 0.6230183 0.1921367 0.489111 0.4041023 0.7011013 0.1529102 0.4949284 0.4041023 0.6812477 0.05409622 0.3127442 0.01402854 0.3270855 0.04832458 0.293747 0.04445457 0.2742787 0.002357482 0.2805328 0.04250526 0.2545204 0.904017 0.524683 0.904017 0.5446587 0.8720794 0.524683 0.8720794 0.5446587 0.8720794 0.524683 0.904017 0.5446587 0.04249572 0.2346687 0.04250526 0.2545204 0 0.2566166 0 0.2566166 0 0.2325878 0.04249572 0.2346687 0 0.2325878 0.002346038 0.2086753 0.04249572 0.2346687 0.04444313 0.2149124 0.04249572 0.2346687 0.002346038 0.2086753 0.9786657 0.67412 0.9679879 0.67412 0.9786657 0.6546469 0.9679879 0.6546469 0.9786657 0.6546469 0.9679879 0.67412 0.9679879 0.67412 0.9786657 0.67412 0.9786657 0.6931191 0.9679879 0.67412 0.9786657 0.6931191 0.9679879 0.6931191 0.2148323 0.04445457 0.20858 0.002357482 0.2345905 0.04250526 0.9679879 0.6931191 0.9786657 0.6931191 0.9786657 0.7114563 0.9679879 0.6931191 0.9786657 0.7114563 0.9679879 0.7114563 0.9679879 0.7114563 0.9786657 0.7114563 0.9786657 0.7289667 0.9679879 0.7114563 0.9786657 0.7289667 0.9679879 0.7289667 0.9679879 0.7289667 0.9786657 0.7289667 0.9786657 0.7454758 0.9679879 0.7289667 0.9786657 0.7454758 0.9679879 0.7454758 0.002357482 0.2805328 0 0.2566166 0.04250526 0.2545204 0.04445457 0.2742787 0.04832458 0.293747 0.002357482 0.2805328 0.1187152 0.4546051 0.0987339 0.4412518 0.1405887 0.4180908 0.09469223 0.380436 0.06316184 0.4090252 0.08208847 0.3650932 0.002357482 0.2805328 0.04832458 0.293747 0.007051467 0.3040962 0.9786657 0.7608185 0.9679879 0.7608185 0.9679879 0.7454758 0.9786657 0.7608185 0.9679879 0.7454758 0.9786657 0.7454758 0.9786657 0.7748585 0.9679879 0.7748585 0.9679879 0.7608185 0.9786657 0.7748585 0.9679879 0.7608185 0.9786657 0.7608185 0.1087322 0.3944779 0.1240787 0.4070625 0.0987339 0.4412518 0.08015441 0.4260082 0.06316184 0.4090252 0.1087322 0.3944779 0.0987339 0.4412518 0.08015441 0.4260082 0.1087322 0.3944779 0.09469223 0.380436 0.1087322 0.3944779 0.06316184 0.4090252 0.04791831 0.3904553 0.08208847 0.3650932 0.06316184 0.4090252 0.03456115 0.3704777 0.08208847 0.3650932 0.04791831 0.3904553 0.02322387 0.349287 0.06170082 0.3310833 0.03456115 0.3704777 0.01402854 0.3270855 0.05409622 0.3127442 0.02322387 0.349287 0.007051467 0.3040962 0.04832458 0.293747 0.01402854 0.3270855 0.9573101 0.5044527 0.9466323 0.5044527 0.9466323 0.4891119 0.9573101 0.5044527 0.9466323 0.4891119 0.9573101 0.4891119 0.9573101 0.5209618 0.9466323 0.5209618 0.9466323 0.5044527 0.9573101 0.5209618 0.9466323 0.5044527 0.9573101 0.5044527 0.4090252 0.4259491 0.3904553 0.4411926 0.3804436 0.3944264 0.9573101 0.5384731 0.9466323 0.5384731 0.9466323 0.5209618 0.9573101 0.5384731 0.9466323 0.5209618 0.9573101 0.5209618 0.9573101 0.5568152 0.9466323 0.5568152 0.9466323 0.5384731 0.9573101 0.5568152 0.9466323 0.5384731 0.9573101 0.5384731 0.3904553 0.4411926 0.3704777 0.4545498 0.3650932 0.4070225 0.2566166 0.489111 0.2325878 0.489111 0.2346687 0.4466152 0.9573101 0.5758057 0.9466323 0.5758057 0.9466323 0.5568152 0.9573101 0.5758057 0.9466323 0.5568152 0.9573101 0.5568152 0.475111 0.3269997 0.4659233 0.3491993 0.4350453 0.3126717 0.9573101 0.5952816 0.9466323 0.5758057 0.9573101 0.5758057 0.967988 0.7608185 0.9573101 0.7608185 0.967988 0.7454758 0.9573101 0.7454758 0.967988 0.7454758 0.9573101 0.7608185 0.4659233 0.3491993 0.4546051 0.3703957 0.4274483 0.3310146 0.4274483 0.3310146 0.4350453 0.3126717 0.4659233 0.3491993 0.9573101 0.7608185 0.967988 0.7608185 0.967988 0.7748585 0.9573101 0.7608185 0.967988 0.7748585 0.9573101 0.7748585 0.4180908 0.3485241 0.4274483 0.3310146 0.4546051 0.3703957 0.9679879 0.4891119 0.9786657 0.4891119 0.9786657 0.5044527 0.9679879 0.4891119 0.9786657 0.5044527 0.9679879 0.5044527 0.9679879 0.5044527 0.9786657 0.5044527 0.9786657 0.5209618 0.9679879 0.5044527 0.9786657 0.5209618 0.9679879 0.5209618 0.9679879 0.5209618 0.9786657 0.5209618 0.9679879 0.5384731 0.3704777 0.4545498 0.349287 0.465889 0.3310833 0.427412 0.3310833 0.427412 0.3485909 0.4180489 0.3704777 0.4545498 0.2545204 0.4466076 0.2742787 0.4446564 0.2805328 0.4867554 0.2346687 0.4466152 0.2545204 0.4466076 0.2566166 0.489111 0.3485909 0.4180489 0.3650932 0.4070225 0.3704777 0.4545498 0.3650932 0.4070225 0.3804436 0.3944264 0.3904553 0.4411926 0.3944779 0.3803787 0.4260082 0.4089565 0.3804436 0.3944264 0.4180908 0.3485241 0.4412518 0.390379 0.4070625 0.3650322 0.4070625 0.3650322 0.4412518 0.390379 0.3944779 0.3803787 0.4412518 0.390379 0.4180908 0.3485241 0.4546051 0.3703957 0.4260082 0.4089565 0.3944779 0.3803787 0.4412518 0.390379 0.4090252 0.4259491 0.3804436 0.3944264 0.4260082 0.4089565 0.9466323 0.5952816 0.9466323 0.5758057 0.9573101 0.5952816 0.7696438 0.002357482 0.7436314 0.04250526 0.7457275 0 0.7457275 0 0.7237797 0.04249572 0.7216988 0 0.9241562 0.1764392 0.9711952 0.1851043 0.9299107 0.1954383 0.5316067 0.2544441 0.489111 0.2324962 0.5316162 0.2345905 0.489111 0.2324962 0.4914684 0.20858 0.5316162 0.2345905 0.9165592 0.1580982 0.9550343 0.1399135 0.9241562 0.1764392 0.9072018 0.1405887 0.9437161 0.1187152 0.9165592 0.1580982 0.489111 0.2565231 0.5316067 0.2544441 0.491457 0.2804356 0.489111 0.2324962 0.5316067 0.2544441 0.489111 0.2565231 0.9151192 0.08015441 0.9303627 0.0987339 0.8835888 0.1087322 0.8835888 0.1087322 0.8695545 0.0946846 0.9151192 0.08015441 0.9782219 0.2325878 0.9357262 0.2346687 0.9758759 0.2086753 0.560175 0.140522 0.5236721 0.1186351 0.5711994 0.1240196 0.5374355 0.1953639 0.5335655 0.2148323 0.4914684 0.20858 0.5335655 0.2148323 0.5316162 0.2345905 0.4914684 0.20858 0.4914684 0.20858 0.4961624 0.1850147 0.5374355 0.1953639 0.5031395 0.1620254 0.5123348 0.1398258 0.5432072 0.1763668 0.4961624 0.1850147 0.5031395 0.1620254 0.5374355 0.1953639 0.5508099 0.1580276 0.5432072 0.1763668 0.5123348 0.1398258 0.5236721 0.1186351 0.5508099 0.1580276 0.5123348 0.1398258 0.5370293 0.0986557 0.5711994 0.1240196 0.5236721 0.1186351 0.8981361 0.06316184 0.9151192 0.08015441 0.8695545 0.0946846 0.4961376 0.3040066 0.5431767 0.3126717 0.5031109 0.3269997 0.7039433 0.4446564 0.697691 0.4867554 0.684475 0.4407864 0.7932072 0.007051467 0.7828579 0.04832458 0.7696438 0.002357482 0.7237015 0.4466076 0.697691 0.4867554 0.7039433 0.4446564 0.7633114 0.4446697 0.7695465 0.4867649 0.7435551 0.4466152 0.8017826 0.4350453 0.7931175 0.4820843 0.7827854 0.4407997 0.8201256 0.4274483 0.8383103 0.4659233 0.8017826 0.4350453 0.9550343 0.1399135 0.9165592 0.1580982 0.9437161 0.1187152 0.9303627 0.0987339 0.9437161 0.1187152 0.9072018 0.1405887 0.964222 0.1621112 0.9241562 0.1764392 0.9550343 0.1399135 0.9072018 0.1405887 0.8961735 0.1240787 0.9303627 0.0987339 0.9711952 0.1851043 0.9241562 0.1764392 0.964222 0.1621112 0.8961735 0.1240787 0.8835888 0.1087322 0.9303627 0.0987339 0.8542042 0.08208847 0.8795662 0.04791831 0.8695545 0.0946846 0.8377018 0.07106399 0.8595886 0.03456115 0.8542042 0.08208847 0.8018551 0.05409622 0.7828579 0.04832458 0.8161965 0.01402854 0.8201943 0.06170082 0.8595886 0.03456115 0.8377018 0.07106399 0.7633896 0.04445457 0.7696438 0.002357482 0.7828579 0.04832458 0.7932072 0.007051467 0.8161965 0.01402854 0.7828579 0.04832458 0.8161965 0.01402854 0.838398 0.02322387 0.8018551 0.05409622 0.8201943 0.06170082 0.8018551 0.05409622 0.838398 0.02322387 0.8595886 0.03456115 0.8201943 0.06170082 0.838398 0.02322387 0.8795662 0.04791831 0.8542042 0.08208847 0.8595886 0.03456115 0.8981361 0.06316184 0.8695545 0.0946846 0.8795662 0.04791831 0.6845474 0.04831314 0.6742153 0.007026672 0.7040234 0.04444313 0.6655502 0.0540657 0.6742153 0.007026672 0.6845474 0.04831314 0.7040234 0.04444313 0.6977863 0.002346038 0.7237797 0.04249572 0.6472092 0.06166267 0.6290245 0.02318763 0.6655502 0.0540657 0.9359546 0.6346073 0.9359546 0.6585255 0.904017 0.6585255 0.9359546 0.6346073 0.904017 0.6585255 0.904017 0.6346073 0.9359546 0.6585255 0.9359546 0.6825581 0.904017 0.6825581 0.9359546 0.6585255 0.904017 0.6825581 0.904017 0.6585255 0.5692654 0.06310272 0.5878449 0.04785919 0.5978432 0.0946331 0.6296997 0.07102203 0.6078262 0.03450584 0.6472092 0.06166267 0.9359546 0.6825581 0.9359546 0.7064667 0.904017 0.7064667 0.9359546 0.6825581 0.904017 0.7064667 0.904017 0.6825581 0.5978432 0.0946331 0.5837956 0.1086673 0.5692654 0.06310272 0.7216988 0 0.7237797 0.04249572 0.6977863 0.002346038 0.9573101 0.6150427 0.9466323 0.6150427 0.9466323 0.5952816 0.9573101 0.6150427 0.9466323 0.5952816 0.9573101 0.5952816 0.5522728 0.08008575 0.5692654 0.06310272 0.5837956 0.1086673 0.6977863 0.002346038 0.7040234 0.04444313 0.6742153 0.007026672 0.9573101 0.6348896 0.9466323 0.6348896 0.9466323 0.6150427 0.9573101 0.6348896 0.9466323 0.6150427 0.9573101 0.6150427 0.5370293 0.0986557 0.5522728 0.08008575 0.5837956 0.1086673 0.9573101 0.6546469 0.9466323 0.6546469 0.9466323 0.6348896 0.9573101 0.6546469 0.9466323 0.6348896 0.9573101 0.6348896 0.9573101 0.67412 0.9466323 0.67412 0.9466323 0.6546469 0.9573101 0.67412 0.9466323 0.6546469 0.9573101 0.6546469 0.6290245 0.02318763 0.6472092 0.06166267 0.6078262 0.03450584 0.5878449 0.04785919 0.6078262 0.03450584 0.6296997 0.07102203 0.6512222 0.01399993 0.6655502 0.0540657 0.6290245 0.02318763 0.6296997 0.07102203 0.6131897 0.08204841 0.5878449 0.04785919 0.6742153 0.007026672 0.6655502 0.0540657 0.6512222 0.01399993 0.6131897 0.08204841 0.5978432 0.0946331 0.5878449 0.04785919 0.9573101 0.6931191 0.9466323 0.6931191 0.9466323 0.67412 0.9573101 0.6931191 0.9466323 0.67412 0.9573101 0.67412 0.9573101 0.7114563 0.9466323 0.7114563 0.9466323 0.6931191 0.9573101 0.7114563 0.9466323 0.6931191 0.9573101 0.6931191 0.5837956 0.1086673 0.5711994 0.1240196 0.5370293 0.0986557 0.9573101 0.7289667 0.9466323 0.7289667 0.9466323 0.7114563 0.9573101 0.7289667 0.9466323 0.7114563 0.9573101 0.7114563 0.5508099 0.1580276 0.5236721 0.1186351 0.560175 0.140522 0.5432072 0.1763668 0.5374355 0.1953639 0.5031395 0.1620254 0.9573101 0.7454758 0.9466323 0.7454758 0.9466323 0.7289667 0.9573101 0.7454758 0.9466323 0.7289667 0.9573101 0.7289667 0.9573101 0.7608185 0.9466323 0.7608185 0.9466323 0.7454758 0.9573101 0.7608185 0.9466323 0.7454758 0.9573101 0.7454758 0.007026672 0.1851043 0.01399993 0.1621112 0.0540657 0.1764392 0.01399993 0.1621112 0.02318763 0.1399135 0.0540657 0.1764392 0.06166267 0.1580982 0.0540657 0.1764392 0.02318763 0.1399135 0.9359545 0.7114563 0.9466323 0.7114563 0.9359545 0.7289667 0.9466323 0.7289667 0.9359545 0.7289667 0.9466323 0.7114563 0.02318763 0.1399135 0.03450584 0.1187152 0.06166267 0.1580982 0.9466323 0.7289667 0.9359545 0.7454758 0.9359545 0.7289667 0.1580276 0.06170082 0.140522 0.07106399 0.1186351 0.03456115 0.8023892 0.7403317 0.7966213 0.759325 0.8062592 0.7208595 0.8082047 0.7011013 0.8062592 0.7208595 0.7966213 0.759325 0.8082047 0.7011013 0.7966213 0.759325 0.7890225 0.777668 0.8082047 0.7011013 0.7890225 0.777668 0.7796669 0.7951775 0.8082047 0.7011013 0.7796669 0.7951775 0.7686329 0.8116798 0.8082047 0.7011013 0.7686329 0.8116798 0.7560349 0.8270283 0.8082047 0.7011013 0.7560349 0.8270283 0.7420025 0.8410664 0.8082047 0.7011013 0.7420025 0.8410664 0.7266522 0.8536568 0.8082047 0.7011013 0.7266522 0.8536568 0.7101421 0.8646832 0.7101688 0.5176487 0.7266712 0.5286827 0.6926327 0.8740406 0.6742973 0.8816376 0.7101688 0.5176487 0.6926327 0.8740406 0.7266712 0.5286827 0.7420197 0.5412808 0.6926327 0.8740406 0.7101421 0.8646832 0.6926327 0.8740406 0.7420197 0.5412808 0.1953639 0.04832458 0.20858 0.002357482 0.2148323 0.04445457 0.7101688 0.5176487 0.6552944 0.8873959 0.6926594 0.5082932 0.7420197 0.5412808 0.7560577 0.5553131 0.7101421 0.8646832 0.7686482 0.5706635 0.7796745 0.5871735 0.7101421 0.8646832 0.7796745 0.5871735 0.789032 0.6046829 0.7101421 0.8646832 0.1398258 0.02322387 0.1620254 0.01402854 0.1763668 0.05409622 0.1240196 0.08208847 0.1086673 0.0946846 0.0986557 0.04791831 0.06310272 0.08015441 0.08008575 0.06316184 0.1086673 0.0946846 0.03450584 0.1187152 0.04785919 0.0987339 0.07102203 0.1405887 0.07102203 0.1405887 0.06166267 0.1580982 0.03450584 0.1187152 0.0946331 0.1087322 0.08204841 0.1240787 0.04785919 0.0987339 0.08204841 0.1240787 0.07102203 0.1405887 0.04785919 0.0987339 0.04785919 0.0987339 0.06310272 0.08015441 0.0946331 0.1087322 0.1086673 0.0946846 0.0946331 0.1087322 0.06310272 0.08015441 0.08008575 0.06316184 0.0986557 0.04791831 0.1086673 0.0946846 0.0986557 0.04791831 0.1186351 0.03456115 0.1240196 0.08208847 0.140522 0.07106399 0.1240196 0.08208847 0.1186351 0.03456115 0.1186351 0.03456115 0.1398258 0.02322387 0.1580276 0.06170082 0.1763668 0.05409622 0.1580276 0.06170082 0.1398258 0.02322387 0.1953639 0.04832458 0.1763668 0.05409622 0.1620254 0.01402854 0.1620254 0.01402854 0.1850147 0.007051467 0.1953639 0.04832458 0.20858 0.002357482 0.1953639 0.04832458 0.1850147 0.007051467 0.2544441 0.04249572 0.2345905 0.04250526 0.2324962 0 0.20858 0.002357482 0.2324962 0 0.2345905 0.04250526 0.2742004 0.04444313 0.2544441 0.04249572 0.2804356 0.002346038 0.2565231 0 0.2804356 0.002346038 0.2544441 0.04249572 0.6742973 0.8816376 0.6552944 0.8873959 0.7101688 0.5176487 0.6358185 0.8912735 0.6926594 0.5082932 0.6552944 0.8873959 0.6160679 0.8932133 0.6926594 0.5082932 0.6358185 0.8912735 0.6160679 0.8932133 0.5962143 0.8932133 0.5962391 0.489111 0.5962143 0.8932133 0.5764561 0.8912678 0.5962391 0.489111 0.5764561 0.8912678 0.556984 0.8873978 0.5962391 0.489111 0.556984 0.8873978 0.5379906 0.88163 0.5962391 0.489111 0.5379906 0.88163 0.5196476 0.8740311 0.5962391 0.489111 0.5764885 0.4910507 0.5962391 0.489111 0.5196476 0.8740311 0.5764885 0.4910507 0.5196476 0.8740311 0.5021381 0.8646755 0.5764885 0.4910507 0.5021381 0.8646755 0.4856339 0.8536396 0.4856339 0.8536396 0.4702873 0.8410435 0.5764885 0.4910507 0.5764885 0.4910507 0.4156857 0.6229992 0.4232845 0.6046562 0.5764885 0.4910507 0.4232845 0.6046562 0.4326401 0.5871468 0.2804356 0.002346038 0.3040085 0.007026672 0.2742004 0.04444313 0.2936745 0.04831314 0.2742004 0.04444313 0.3040085 0.007026672 0.9893328 0.67412 1 0.6546469 1 0.67412 0.3126717 0.0540657 0.2936745 0.04831314 0.3040085 0.007026672 0.9893328 0.67412 1 0.67412 1 0.6931191 0.9893328 0.67412 1 0.6931191 0.9893328 0.6931191 0.3310146 0.06166267 0.3126717 0.0540657 0.3491993 0.02318763 0.3269997 0.01399993 0.3491993 0.02318763 0.3126717 0.0540657 0.3040085 0.007026672 0.3269997 0.01399993 0.3126717 0.0540657 0.9893328 0.6931191 1 0.6931191 1 0.7114563 0.9893328 0.6931191 1 0.7114563 0.9893328 0.7114563 0.3491993 0.02318763 0.3703957 0.03450584 0.3310146 0.06166267 0.9893328 0.7114563 1 0.7114563 1 0.7289667 0.9893328 0.7114563 1 0.7289667 0.9893328 0.7289667 0.9893328 0.7289667 1 0.7289667 1 0.7454758 0.9893328 0.7289667 1 0.7454758 0.9893328 0.7454758 0.3485241 0.07102203 0.3310146 0.06166267 0.3703957 0.03450584 0.3703957 0.03450584 0.390379 0.04785919 0.3485241 0.07102203 0.3650322 0.08204841 0.3485241 0.07102203 0.390379 0.04785919 0.3803787 0.0946331 0.3650322 0.08204841 0.390379 0.04785919 0.390379 0.04785919 0.4089565 0.06310272 0.3803787 0.0946331 0.3944264 0.1086673 0.3803787 0.0946331 0.4089565 0.06310272 0.3944264 0.1086673 0.4089565 0.06310272 0.4259491 0.08008575 1 0.7608185 0.9893328 0.7608185 0.9893328 0.7454758 1 0.7608185 0.9893328 0.7454758 1 0.7454758 1 0.7748585 0.9893328 0.7748585 0.9893328 0.7608185 1 0.7748585 0.9893328 0.7608185 1 0.7608185 0.4259491 0.08008575 0.4411926 0.0986557 0.3944264 0.1086673 0.9995575 0.0153408 0.9888903 0.0153408 0.9888903 0 0.9995575 0.0153408 0.9888903 0 0.9995575 0 0.4070225 0.1240196 0.3944264 0.1086673 0.4411926 0.0986557 0.4411926 0.0986557 0.4545498 0.1186351 0.4070225 0.1240196 0.9995575 0.03184986 0.9888903 0.03184986 0.9888903 0.0153408 0.9995575 0.03184986 0.9888903 0.0153408 0.9995575 0.0153408 0.9995575 0.04936122 0.9888903 0.04936122 0.9888903 0.03184986 0.9995575 0.04936122 0.9888903 0.03184986 0.9995575 0.03184986 0.9995575 0.06770324 0.9888903 0.06770324 0.9888903 0.04936122 0.9995575 0.06770324 0.9888903 0.04936122 0.9995575 0.04936122 0.4446564 0.2148323 0.4867554 0.20858 0.4466076 0.2345905 0.9995575 0.08669376 0.9888903 0.08669376 0.9888903 0.06770324 0.9995575 0.08669376 0.9888903 0.06770324 0.9995575 0.06770324 0.9995575 0.1061697 0.9888903 0.08669376 0.9995575 0.08669376 0.4466152 0.2544441 0.4466076 0.2345905 0.489111 0.2324962 0.4466152 0.2544441 0.489111 0.2324962 0.489111 0.2565231 0.4466152 0.2544441 0.489111 0.2565231 0.4867649 0.2804356 0.9893329 0.7608185 0.9786657 0.7608185 0.9893329 0.7454758 0.9786657 0.7454758 0.9893329 0.7454758 0.9786657 0.7608185 0.9786657 0.7608185 0.9893329 0.7608185 0.9893329 0.7748585 0.9786657 0.7608185 0.9893329 0.7748585 0.9786657 0.7748585 0.4750824 0.1620254 0.4820595 0.1850147 0.4407864 0.1953639 0.4407864 0.1953639 0.4350166 0.1763668 0.4750824 0.1620254 0.4820595 0.1850147 0.4867554 0.20858 0.4407864 0.1953639 0.465889 0.1398258 0.4750824 0.1620254 0.4350166 0.1763668 0.4446564 0.2148323 0.4407864 0.1953639 0.4867554 0.20858 0.489111 0.2324962 0.4466076 0.2345905 0.4867554 0.20858 0.4350166 0.1763668 0.427412 0.1580276 0.465889 0.1398258 0.4545498 0.1186351 0.465889 0.1398258 0.427412 0.1580276 0.427412 0.1580276 0.4180489 0.140522 0.4545498 0.1186351 0.4180489 0.140522 0.4070225 0.1240196 0.4545498 0.1186351 0.9893328 0.4891119 1 0.4891119 1 0.5044527 0.9893328 0.4891119 1 0.5044527 0.9893328 0.5044527 0.475111 0.3269997 0.4350453 0.3126717 0.4820843 0.3040066 0.9893328 0.5044527 1 0.5044527 1 0.5209618 0.9893328 0.5044527 1 0.5209618 0.9893328 0.5209618 0.349287 0.465889 0.3127442 0.4350166 0.3310833 0.427412 1 0.5384731 0.9893328 0.5384731 1 0.5209618 0.9893328 0.5209618 1 0.5209618 0.9893328 0.5384731 0.9888903 0.08669376 0.9995575 0.1061697 0.9888903 0.1061697 0.349287 0.465889 0.3270855 0.4750824 0.3127442 0.4350166 0.293747 0.4407864 0.3127442 0.4350166 0.3270855 0.4750824 0.9995575 0.1259307 0.9888903 0.1259307 0.9888903 0.1061697 0.9995575 0.1259307 0.9888903 0.1061697 0.9995575 0.1061697 0.9995575 0.1457777 0.9888903 0.1457777 0.9888903 0.1259307 0.9995575 0.1457777 0.9888903 0.1259307 0.9995575 0.1259307 0.3270855 0.4750824 0.3040962 0.4820595 0.293747 0.4407864 0.9995575 0.1655349 0.9888903 0.1655349 0.9888903 0.1457777 0.9995575 0.1655349 0.9888903 0.1457777 0.9995575 0.1457777 0.3040962 0.4820595 0.2805328 0.4867554 0.293747 0.4407864 0.9995575 0.185008 0.9888903 0.185008 0.9888903 0.1655349 0.9995575 0.185008 0.9888903 0.1655349 0.9995575 0.1655349 0.2742787 0.4446564 0.293747 0.4407864 0.2805328 0.4867554 0.9995575 0.2040071 0.9888903 0.2040071 0.9888903 0.185008 0.9995575 0.2040071 0.9888903 0.185008 0.9995575 0.185008 0.2805328 0.4867554 0.2566166 0.489111 0.2545204 0.4466076 0.9995575 0.2223443 0.9888903 0.2223443 0.9888903 0.2040071 0.9995575 0.2223443 0.9888903 0.2040071 0.9995575 0.2040071 0.2325878 0.489111 0.2086753 0.4867649 0.2346687 0.4466152 0.9995575 0.2398548 0.9888903 0.2398548 0.9888903 0.2223443 0.9995575 0.2398548 0.9888903 0.2223443 0.9995575 0.2223443 0.1954383 0.4407997 0.2149124 0.4446697 0.1851043 0.4820843 0.2086753 0.4867649 0.1851043 0.4820843 0.2149124 0.4446697 0.2149124 0.4446697 0.2346687 0.4466152 0.2086753 0.4867649 0.9995575 0.2563639 0.9888903 0.2563639 0.9888903 0.2398548 0.9995575 0.2563639 0.9888903 0.2398548 0.9995575 0.2398548 0.1764392 0.4350453 0.1954383 0.4407997 0.1851043 0.4820843 0.1851043 0.4820843 0.1621112 0.475111 0.1764392 0.4350453 0.1621112 0.475111 0.1399135 0.4659233 0.1764392 0.4350453 0.1580982 0.4274483 0.1764392 0.4350453 0.1399135 0.4659233 0.9995575 0.2717066 0.9888903 0.2717066 0.9888903 0.2563639 0.9995575 0.2717066 0.9888903 0.2563639 0.9995575 0.2563639 0.1399135 0.4659233 0.1187152 0.4546051 0.1580982 0.4274483 0.1405887 0.4180908 0.1580982 0.4274483 0.1187152 0.4546051 0.9995575 0.2717066 0.9888903 0.2857466 0.9888903 0.2717066 0.4446697 0.2742004 0.4466152 0.2544441 0.4867649 0.2804356 0.9888904 0.2398548 0.9782232 0.2398548 0.9782232 0.2223443 0.4867649 0.2804356 0.4820843 0.3040066 0.4446697 0.2742004 0.4446697 0.2742004 0.4820843 0.3040066 0.4407997 0.2936745 0.4407997 0.2936745 0.4820843 0.3040066 0.4350453 0.3126717 0.9888904 0.2398548 0.9782232 0.2563639 0.9782232 0.2398548 0.1723861 0.4910507 0.1921367 0.489111 0.4041023 0.6812477 0.3755722 0.5871735 0.3849297 0.6046829 0.1921367 0.489111 0.3755722 0.5871735 0.1921367 0.489111 0.2119903 0.489111 0.3755722 0.5871735 0.2119903 0.489111 0.2317485 0.4910545 0.3755722 0.5871735 0.2317485 0.4910545 0.2512207 0.4949265 0.3755722 0.5871735 0.2512207 0.4949265 0.2702141 0.5006943 0.3755722 0.5871735 0.2702141 0.5006943 0.2885571 0.5082932 0.3755722 0.5871735 0.2885571 0.5082932 0.3060665 0.5176487 0.3755722 0.5871735 0.3060665 0.5176487 0.3225689 0.5286827 0.3755722 0.5871735 0.3225689 0.5286827 0.3379173 0.5412808 0.3519554 0.5553131 0.3645458 0.5706635 0.3379173 0.5412808 0.3755722 0.5871735 0.3379173 0.5412808 0.3645458 0.5706635 0.1723861 0.4910507 0.4041023 0.6812477 0.1529102 0.4949284 0.4041023 0.7011013 0.4021568 0.7208595 0.1529102 0.4949284 0.4021568 0.7208595 0.3982868 0.7403317 0.1529102 0.4949284 0.3982868 0.7403317 0.392519 0.759325 0.1529102 0.4949284 0.392519 0.759325 0.3849201 0.777668 0.1529102 0.4949284 0.3849201 0.777668 0.3755646 0.7951775 0.1529102 0.4949284 0.3755646 0.7951775 0.3645306 0.8116798 0.1529102 0.4949284 0.9359546 0.7064667 0.9359546 0.7300301 0.904017 0.7300301 0.9359546 0.7064667 0.904017 0.7300301 0.904017 0.7064667 0.9359546 0.7300301 0.9359546 0.753027 0.904017 0.753027 0.9359546 0.7300301 0.904017 0.753027 0.904017 0.7300301 0.9359546 0.753027 0.9359546 0.7752342 0.904017 0.7752342 0.9359546 0.753027 0.904017 0.7752342 0.904017 0.753027 0.9359546 0.7752342 0.9359546 0.796423 0.904017 0.796423 0.9359546 0.7752342 0.904017 0.796423 0.904017 0.7752342 0.9359546 0.796423 0.9359546 0.8163967 0.904017 0.8163967 0.9359546 0.796423 0.904017 0.8163967 0.904017 0.796423 0.9359546 0.8163967 0.9359546 0.8349724 0.904017 0.8349724 0.9359546 0.8163967 0.904017 0.8349724 0.904017 0.8163967 0.8401415 0.489111 0.8720791 0.5061073 0.8401415 0.5061073 0.8720791 0.489111 0.8720791 0.5061073 0.8401415 0.489111 0.8401415 0.524683 0.8401415 0.5061073 0.8720791 0.524683 0.8720791 0.5061073 0.8720791 0.524683 0.8401415 0.5061073 0.8401415 0.7300301 0.8082039 0.7300301 0.8082039 0.7064667 0.8401415 0.7300301 0.8082039 0.7064667 0.8401415 0.7064667 0.8401415 0.753027 0.8082039 0.753027 0.8082039 0.7300301 0.8401415 0.753027 0.8082039 0.7300301 0.8401415 0.7300301 0.8401415 0.7752342 0.8082039 0.7752342 0.8082039 0.753027 0.8401415 0.7752342 0.8082039 0.753027 0.8401415 0.753027 0.8401415 0.796423 0.8082039 0.796423 0.8082039 0.7752342 0.8401415 0.796423 0.8082039 0.7752342 0.8401415 0.7752342 0.8401415 0.8163986 0.8082039 0.8163986 0.8082039 0.796423 0.8401415 0.8163986 0.8082039 0.796423 0.8401415 0.796423 0.8401415 0.5446587 0.8401415 0.524683 0.8720791 0.524683 0.8401415 0.8349724 0.8082039 0.8349724 0.8082039 0.8163986 0.8401415 0.8349724 0.8082039 0.8163986 0.8401415 0.8163986 0.8401415 0.5446587 0.8720791 0.524683 0.8720791 0.5446587 0.9466323 0.7608185 0.9573101 0.7608185 0.9466323 0.7748585 0.9573101 0.7748585 0.9466323 0.7748585 0.9573101 0.7608185 0.9466323 0.5044527 0.9359545 0.5044527 0.9359545 0.4891119 0.9466323 0.5044527 0.9359545 0.4891119 0.9466323 0.4891119 0.9359546 0.489111 0.9359546 0.5061073 0.904017 0.5061073 0.9466323 0.5209618 0.9359545 0.5209618 0.9359545 0.5044527 0.9466323 0.5209618 0.9359545 0.5044527 0.9466323 0.5044527 0.904017 0.5061073 0.904017 0.489111 0.9359546 0.489111 0.9466323 0.5384731 0.9359545 0.5384731 0.9359545 0.5209618 0.9466323 0.5384731 0.9359545 0.5209618 0.9466323 0.5209618 0.9466323 0.5568152 0.9359545 0.5568152 0.9359545 0.5384731 0.9466323 0.5568152 0.9359545 0.5384731 0.9466323 0.5384731 0.9466323 0.5758057 0.9359545 0.5758057 0.9359545 0.5568152 0.9466323 0.5758057 0.9359545 0.5568152 0.9466323 0.5568152 0.9466323 0.7454758 0.9359545 0.7454758 0.9466323 0.7289667 0.9466323 0.5952807 0.9359545 0.5952807 0.9359545 0.5758057 0.9466323 0.5952807 0.9359545 0.5758057 0.9466323 0.5758057 0.9359545 0.7454758 0.9466323 0.7454758 0.9466323 0.7608185 0.9359545 0.7454758 0.9466323 0.7608185 0.9359545 0.7608185 0.9359545 0.7608185 0.9466323 0.7608185 0.9466323 0.7748585 0.9359545 0.7608185 0.9466323 0.7748585 0.9359545 0.7748585 0.9466323 0.6150427 0.9359545 0.6150427 0.9359545 0.5952807 0.9466323 0.6150427 0.9359545 0.5952807 0.9466323 0.5952807 0.9573101 0.4891119 0.967988 0.4891119 0.967988 0.5044527 0.9573101 0.4891119 0.967988 0.5044527 0.9573101 0.5044527 0.9466323 0.6348896 0.9359545 0.6348896 0.9359545 0.6150427 0.9466323 0.6348896 0.9359545 0.6150427 0.9466323 0.6150427 0.9573101 0.5044527 0.967988 0.5044527 0.967988 0.5209618 0.9573101 0.5044527 0.967988 0.5209618 0.9573101 0.5209618 0.9466323 0.6546469 0.9359545 0.6546469 0.9359545 0.6348896 0.9466323 0.6546469 0.9359545 0.6348896 0.9466323 0.6348896 0.9573101 0.5209618 0.967988 0.5209618 0.967988 0.5384731 0.9573101 0.5209618 0.967988 0.5384731 0.9573101 0.5384731 0.9466323 0.67412 0.9359545 0.67412 0.9359545 0.6546469 0.9466323 0.67412 0.9359545 0.6546469 0.9466323 0.6546469 0.9573101 0.5384731 0.967988 0.5384731 0.967988 0.5568152 0.9573101 0.5384731 0.967988 0.5568152 0.9573101 0.5568152 0.9573101 0.5568152 0.967988 0.5568152 0.967988 0.5758057 0.9573101 0.5568152 0.967988 0.5758057 0.9573101 0.5758057 0.9466323 0.6931191 0.9359545 0.6931191 0.9359545 0.67412 0.9466323 0.6931191 0.9359545 0.67412 0.9466323 0.67412 0.9573101 0.5758057 0.967988 0.5758057 0.967988 0.5952807 0.9573101 0.5758057 0.967988 0.5952807 0.9573101 0.5952807 0.9466323 0.7114563 0.9359545 0.7114563 0.9359545 0.6931191 0.9466323 0.7114563 0.9359545 0.6931191 0.9466323 0.6931191 0.967988 0.5952807 0.9573101 0.6150427 0.9573101 0.5952807 0.4326401 0.5871468 0.4436741 0.5706425 0.4562721 0.555296 0.4326401 0.5871468 0.4562721 0.555296 0.4703045 0.5412579 0.4326401 0.5871468 0.4703045 0.5412579 0.4856548 0.5286675 0.4326401 0.5871468 0.4856548 0.5286675 0.5021649 0.5176411 0.4326401 0.5871468 0.5021649 0.5176411 0.5196743 0.5082836 0.4326401 0.5871468 0.5196743 0.5082836 0.5380097 0.5006847 0.5764885 0.4910507 0.4326401 0.5871468 0.5570107 0.4949169 0.5380097 0.5006847 0.5570107 0.4949169 0.4326401 0.5871468 0.9888904 0.2563639 0.9782232 0.2563639 0.9888904 0.2398548 0.4436588 0.8116608 0.5764885 0.4910507 0.4562492 0.8270111 0.4326325 0.7951508 0.5764885 0.4910507 0.4436588 0.8116608 0.4702873 0.8410435 0.4562492 0.8270111 0.5764885 0.4910507 0.423275 0.7776413 0.5764885 0.4910507 0.4326325 0.7951508 0.415678 0.759306 0.5764885 0.4910507 0.423275 0.7776413 0.4099083 0.740305 0.5764885 0.4910507 0.415678 0.759306 0.4060421 0.7208271 0.5764885 0.4910507 0.4099083 0.740305 0.4041023 0.7010765 0.5764885 0.4910507 0.4060421 0.7208271 0.4041023 0.6812229 0.5764885 0.4910507 0.4041023 0.7010765 0.4060459 0.6614647 0.5764885 0.4910507 0.4041023 0.6812229 0.4099178 0.6419926 0.5764885 0.4910507 0.4060459 0.6614647 0.4156857 0.6229992 0.5764885 0.4910507 0.4099178 0.6419926 0.9782232 0.2563639 0.9888904 0.2563639 0.9888904 0.2717066 0.9782232 0.2563639 0.9888904 0.2717066 0.9782232 0.2717066 0.9995575 0.2857466 0.9888903 0.2857466 0.9995575 0.2717066 0.9782232 0.2717066 0.9888904 0.2717066 0.9888904 0.2857466 0.9782232 0.2717066 0.9888904 0.2857466 0.9782232 0.2857466 0.9888904 0.0153408 0.9782232 0.0153408 0.9782232 0 0.9888904 0.0153408 0.9782232 0 0.9888904 0 0.9786657 0.4891119 0.9893329 0.4891119 0.9893329 0.5044527 0.9786657 0.4891119 0.9893329 0.5044527 0.9786657 0.5044527 0.9888904 0.03184986 0.9782232 0.03184986 0.9782232 0.0153408 0.9888904 0.03184986 0.9782232 0.0153408 0.9888904 0.0153408 0.9786657 0.5044527 0.9893329 0.5044527 0.9893329 0.5209618 0.9786657 0.5044527 0.9893329 0.5209618 0.9786657 0.5209618 0.9786657 0.5209618 0.9893329 0.5209618 0.9893329 0.5384731 0.9786657 0.5209618 0.9893329 0.5384731 0.9786657 0.5384731 0.9888904 0.04936122 0.9782232 0.04936122 0.9782232 0.03184986 0.9888904 0.04936122 0.9782232 0.03184986 0.9888904 0.03184986 0.9786657 0.5384731 0.9893329 0.5384731 0.9893329 0.5568152 0.9786657 0.5384731 0.9893329 0.5568152 0.9786657 0.5568152 0.9888904 0.06770324 0.9782232 0.06770324 0.9782232 0.04936122 0.9888904 0.06770324 0.9782232 0.04936122 0.9888904 0.04936122 0.9786657 0.5568152 0.9893329 0.5568152 0.9893329 0.5758057 0.9786657 0.5568152 0.9893329 0.5758057 0.9786657 0.5758057 0.9888904 0.08669376 0.9782232 0.08669376 0.9782232 0.06770324 0.9888904 0.08669376 0.9782232 0.06770324 0.9888904 0.06770324 0.9786657 0.5758057 0.9893329 0.5758057 0.9893329 0.5952807 0.9786657 0.5758057 0.9893329 0.5952807 0.9786657 0.5952807 0.9888904 0.1061687 0.9782232 0.1061687 0.9782232 0.08669376 0.9888904 0.1061687 0.9782232 0.08669376 0.9888904 0.08669376 0.9786657 0.5952807 0.9893329 0.5952807 0.9786657 0.6150427 0.9893329 0.6150427 0.9786657 0.6150427 0.9893329 0.5952807 0.9888904 0.1259307 0.9782232 0.1259307 0.9782232 0.1061687 0.9888904 0.1259307 0.9782232 0.1061687 0.9888904 0.1061687 0.9888904 0.1457777 0.9782232 0.1457777 0.9782232 0.1259307 0.9888904 0.1457777 0.9782232 0.1259307 0.9888904 0.1259307 0.9888904 0.1655349 0.9782232 0.1655349 0.9782232 0.1457777 0.9888904 0.1655349 0.9782232 0.1457777 0.9888904 0.1457777 0.1338882 0.88163 0.1529102 0.4949284 0.1528816 0.8873978 0.1723537 0.8912678 0.1528816 0.8873978 0.1529102 0.4949284 0.1155452 0.8740311 0.1529102 0.4949284 0.1338882 0.88163 0.1921119 0.8932133 0.1723537 0.8912678 0.1529102 0.4949284 0.09803581 0.8646755 0.1529102 0.4949284 0.1155452 0.8740311 0.08153152 0.8536396 0.1529102 0.4949284 0.09803581 0.8646755 0.2119655 0.8932133 0.1921119 0.8932133 0.1529102 0.4949284 0.251194 0.8874054 0.2317161 0.8912735 0.1529102 0.4949284 0.2317161 0.8912735 0.2119655 0.8932133 0.1529102 0.4949284 0.9888904 0.185008 0.9782232 0.185008 0.9782232 0.1655349 0.9888904 0.185008 0.9782232 0.1655349 0.9888904 0.1655349 0.9888904 0.2040071 0.9782232 0.2040071 0.9782232 0.185008 0.9888904 0.2040071 0.9782232 0.185008 0.9888904 0.185008 0.8082039 0.524683 0.8082039 0.5061073 0.8401415 0.524683 0.9888904 0.2223443 0.9782232 0.2223443 0.9782232 0.2040071 0.9888904 0.2223443 0.9782232 0.2040071 0.9888904 0.2040071 0.8082039 0.524683 0.8401415 0.524683 0.8082039 0.5446587 0.8401415 0.5446587 0.8082039 0.5446587 0.8401415 0.524683 0.9888904 0.2398548 0.9782232 0.2223443 0.9888904 0.2223443 0.8401415 0.5658512 0.8082039 0.5658512 0.8401415 0.5446587 0.8082039 0.5446587 0.8401415 0.5446587 0.8082039 0.5658512 0.8401415 0.5658512 0.8401415 0.5880509 0.8082039 0.5880509 0.8401415 0.5658512 0.8082039 0.5880509 0.8082039 0.5658512 0.8401415 0.5880509 0.8401415 0.6110401 0.8082039 0.6110401 0.8401415 0.5880509 0.8082039 0.6110401 0.8082039 0.5880509 0.8401415 0.6110401 0.8401415 0.6346073 0.8082039 0.6346073 0.8401415 0.6110401 0.8082039 0.6346073 0.8082039 0.6110401 0.01158332 0.6229992 0.08153152 0.8536396 0.005815505 0.6419926 0.001943588 0.6614647 0.005815505 0.6419926 0.08153152 0.8536396 0.0191822 0.6046562 0.08153152 0.8536396 0.01158332 0.6229992 0 0.6812229 0.001943588 0.6614647 0.08153152 0.8536396 0 0.6812229 0.08153152 0.8536396 0.06618499 0.8410435 0 0.6812229 0.06618499 0.8410435 0.05214691 0.8270111 0 0.6812229 0.05214691 0.8270111 0.0395565 0.8116608 0 0.6812229 0.0395565 0.8116608 0.02853012 0.7951508 0 0.6812229 0.02853012 0.7951508 0.01917266 0.7776413 0.01157569 0.759306 0 0.7010765 0.01917266 0.7776413 0.005805969 0.740305 0.001939773 0.7208271 0.01157569 0.759306 0 0.7010765 0.01157569 0.759306 0.001939773 0.7208271 0 0.6812229 0.01917266 0.7776413 0 0.7010765 0.8401415 0.6346073 0.8401415 0.6585255 0.8082039 0.6585255 0.8401415 0.6346073 0.8082039 0.6585255 0.8082039 0.6346073 0.8401415 0.7064667 0.8082039 0.7064667 0.8082039 0.6825581 0.8401415 0.6585255 0.8401415 0.6825581 0.8082039 0.6825581 0.8401415 0.6585255 0.8082039 0.6825581 0.8082039 0.6585255 0.8082039 0.6825581 0.8401415 0.6825581 0.8401415 0.7064667 0.837635 0.4180908 0.8595066 0.4546051 0.8201256 0.4274483 0.9573101 0.6150427 0.967988 0.5952807 0.967988 0.6150427 0.8541432 0.4070625 0.8794899 0.4412518 0.837635 0.4180908 0.9573101 0.6150427 0.967988 0.6150427 0.967988 0.6348896 0.9573101 0.6150427 0.967988 0.6348896 0.9573101 0.6348896 0.8694897 0.3944779 0.8794899 0.4412518 0.8541432 0.4070625 0.7456341 0.489111 0.7435551 0.4466152 0.7695465 0.4867649 0.967988 0.6546469 0.9573101 0.6546469 0.9573101 0.6348896 0.967988 0.6546469 0.9573101 0.6348896 0.967988 0.6348896 0.7695465 0.4867649 0.7633114 0.4446697 0.7931175 0.4820843 0.5335541 0.2742004 0.491457 0.2804356 0.5316067 0.2544441 0.5374241 0.2936745 0.4961376 0.3040066 0.5335541 0.2742004 0.5507736 0.3310146 0.5122986 0.3491993 0.5431767 0.3126717 0.560133 0.3485241 0.5236168 0.3703957 0.5507736 0.3310146 0.5431767 0.3126717 0.4961376 0.3040066 0.5374241 0.2936745 0.9241276 0.3127442 0.9298973 0.293747 0.9641934 0.3270855 0.9782219 0.2566166 0.9758663 0.2805328 0.9357185 0.2545204 0.9337673 0.2742787 0.9758663 0.2805328 0.9298973 0.293747 0.9337807 0.2149124 0.9758759 0.2086753 0.9357262 0.2346687 0.9357185 0.2545204 0.9357262 0.2346687 0.9782219 0.2566166 0.9782219 0.2325878 0.9782219 0.2566166 0.9357262 0.2346687 0.9299107 0.1954383 0.9711952 0.1851043 0.9337807 0.2149124 0.9758759 0.2086753 0.9337807 0.2149124 0.9711952 0.1851043 0.7237797 0.04249572 0.7457275 0 0.7436314 0.04250526 0.7633896 0.04445457 0.7436314 0.04250526 0.7696438 0.002357482 0.8835297 0.380436 0.9150601 0.4090252 0.8694897 0.3944779 0.9641934 0.3270855 0.9549999 0.349287 0.9241276 0.3127442 0.916523 0.3310833 0.9436607 0.3704777 0.9071598 0.3485909 0.9711704 0.3040962 0.9641934 0.3270855 0.9298973 0.293747 0.9758663 0.2805328 0.9711704 0.3040962 0.9298973 0.293747 0.9337673 0.2742787 0.9357185 0.2545204 0.9758663 0.2805328 0.9071598 0.3485909 0.9436607 0.3704777 0.8961334 0.3650932 0.8961334 0.3650932 0.9150601 0.4090252 0.8835297 0.380436 0.7931175 0.4820843 0.8017826 0.4350453 0.8161106 0.475111 0.8383103 0.4659233 0.8201256 0.4274483 0.8595066 0.4546051 0.8595066 0.4546051 0.837635 0.4180908 0.8794899 0.4412518 0.8794899 0.4412518 0.8694897 0.3944779 0.8980675 0.4260082 0.8161106 0.475111 0.8017826 0.4350453 0.8383103 0.4659233 0.8980675 0.4260082 0.8694897 0.3944779 0.9150601 0.4090252 0.916523 0.3310833 0.9241276 0.3127442 0.9549999 0.349287 0.9436607 0.3704777 0.916523 0.3310833 0.9549999 0.349287 0.9303036 0.3904553 0.8961334 0.3650932 0.9436607 0.3704777 0.9150601 0.4090252 0.8961334 0.3650932 0.9303036 0.3904553 0.6471386 0.427412 0.6077461 0.4545498 0.629633 0.4180489 0.6511364 0.4750824 0.684475 0.4407864 0.6741257 0.4820595 0.6511364 0.4750824 0.6289368 0.465889 0.6654778 0.4350166 0.6654778 0.4350166 0.684475 0.4407864 0.6511364 0.4750824 0.697691 0.4867554 0.6741257 0.4820595 0.684475 0.4407864 0.7435551 0.4466152 0.7216072 0.489111 0.7237015 0.4466076 0.7827854 0.4407997 0.7931175 0.4820843 0.7633114 0.4446697 0.7216072 0.489111 0.7435551 0.4466152 0.7456341 0.489111 0.697691 0.4867554 0.7237015 0.4466076 0.7216072 0.489111 0.5711594 0.3650322 0.5369701 0.390379 0.560133 0.3485241 0.5877667 0.4411926 0.5691967 0.4259491 0.5977783 0.3944264 0.5522137 0.4089565 0.5369701 0.390379 0.5837441 0.3803787 0.5711594 0.3650322 0.5837441 0.3803787 0.5369701 0.390379 0.5236168 0.3703957 0.560133 0.3485241 0.5369701 0.390379 0.5122986 0.3491993 0.5507736 0.3310146 0.5236168 0.3703957 0.5031109 0.3269997 0.5431767 0.3126717 0.5122986 0.3491993 0.491457 0.2804356 0.5335541 0.2742004 0.4961376 0.3040066 0.5837441 0.3803787 0.5977783 0.3944264 0.5522137 0.4089565 0.5691967 0.4259491 0.5522137 0.4089565 0.5977783 0.3944264 0.5877667 0.4411926 0.5977783 0.3944264 0.6131306 0.4070225 0.629633 0.4180489 0.6077461 0.4545498 0.6131306 0.4070225 0.6471386 0.427412 0.6654778 0.4350166 0.6289368 0.465889 0.6077461 0.4545498 0.6471386 0.427412 0.6289368 0.465889 0.5877667 0.4411926 0.6131306 0.4070225 0.6077461 0.4545498 0.9359546 0.5061073 0.9359546 0.524683 0.904017 0.5061073 0.904017 0.524683 0.904017 0.5061073 0.9359546 0.524683 0.9359546 0.524683 0.9359546 0.5446587 0.904017 0.5446587 0.9359546 0.524683 0.904017 0.5446587 0.904017 0.524683 0.9359546 0.5446587 0.9359546 0.5658512 0.904017 0.5658512 0.9359546 0.5446587 0.904017 0.5658512 0.904017 0.5446587 0.9359546 0.5658512 0.904017 0.5880509 0.904017 0.5658512 0.9359546 0.5658512 0.9359546 0.5880509 0.904017 0.5880509 0.9359546 0.5880509 0.9359546 0.611042 0.904017 0.611042 0.9359546 0.5880509 0.904017 0.611042 0.904017 0.5880509 0.9359546 0.611042 0.9359546 0.6346073 0.904017 0.6346073 0.9359546 0.611042 0.904017 0.6346073 0.904017 0.611042</float_array>
          <technique_common>
            <accessor source="#obj_0-mesh-map-0-array" count="2292" stride="2">
              <param name="S" type="float"/>
              <param name="T" type="float"/>
            </accessor>
          </technique_common>
        </source>
        <vertices id="obj_0-mesh-vertices">
          <input semantic="POSITION" source="#obj_0-mesh-positions"/>
        </vertices>
        <triangles material="color_16089887-material" count="764">
          <input semantic="VERTEX" source="#obj_0-mesh-vertices" offset="0"/>
          <input semantic="NORMAL" source="#obj_0-mesh-normals" offset="1"/>
          <input semantic="TEXCOORD" source="#obj_0-mesh-map-0" offset="2" set="0"/>
          <p>2 0 0 279 0 1 1 0 2 4 0 3 3 0 4 272 0 5 3 0 6 148 0 7 272 0 8 263 0 9 272 0 10 148 0 11 8 1 12 18 1 13 7 1 14 9 2 15 18 2 16 8 2 17 11 3 18 18 3 19 9 3 20 12 4 21 18 4 22 11 4 23 13 5 24 18 5 25 12 5 26 14 4 27 18 4 28 13 4 29 15 4 30 18 4 31 14 4 32 16 4 33 18 4 34 15 4 35 6 4 36 7 4 37 18 4 38 170 0 39 168 0 40 40 0 41 20 6 42 23 6 43 24 6 44 20 7 45 24 7 46 21 7 47 22 8 48 29 8 49 25 8 50 23 9 51 26 9 52 27 9 53 23 10 54 27 10 55 24 10 56 26 11 57 29 11 58 30 11 59 26 12 60 30 12 61 27 12 62 25 0 63 29 0 64 28 0 65 29 13 66 32 13 67 33 13 68 29 14 69 33 14 70 30 14 71 32 15 72 35 15 73 36 15 74 32 16 75 36 16 76 33 16 77 28 17 78 26 17 79 31 17 80 36 18 81 35 18 82 38 18 83 36 19 84 38 19 85 39 19 86 38 20 87 40 20 88 41 20 89 38 21 90 41 21 91 39 21 92 40 22 93 43 22 94 44 22 95 40 23 96 44 23 97 41 23 98 45 24 99 46 24 100 47 24 101 45 25 102 47 25 103 48 25 104 43 26 105 49 26 106 50 26 107 43 27 108 50 27 109 44 27 110 49 28 111 53 28 112 54 28 113 49 29 114 54 29 115 50 29 116 51 30 117 52 30 118 46 30 119 51 31 120 46 31 121 45 31 122 55 32 123 56 32 124 52 32 125 55 33 126 52 33 127 51 33 128 57 34 129 58 34 130 59 34 131 57 34 132 59 34 133 60 34 134 61 35 135 62 35 136 56 35 137 61 36 138 56 36 139 55 36 140 63 37 141 64 37 142 60 37 143 63 37 144 60 37 145 59 37 146 65 38 147 66 38 148 62 38 149 65 39 150 62 39 151 61 39 152 67 40 153 68 40 154 64 40 155 67 40 156 64 40 157 63 40 158 69 41 159 70 41 160 68 41 161 69 41 162 68 41 163 67 41 164 71 42 165 72 42 166 70 42 167 71 42 168 70 42 169 69 42 170 114 43 171 72 43 172 71 43 173 56 0 174 245 0 175 52 0 176 46 0 177 52 0 178 245 0 179 62 0 180 245 0 181 56 0 182 47 44 183 46 44 184 245 44 185 75 0 186 47 0 187 245 0 188 78 45 189 77 45 190 79 45 191 78 46 192 79 46 193 80 46 194 76 47 195 73 47 196 86 47 197 81 48 198 82 48 199 80 48 200 81 49 201 80 49 202 79 49 203 83 50 204 84 50 205 82 50 206 83 51 207 82 51 208 81 51 209 85 52 210 86 52 211 73 52 212 87 53 213 88 53 214 84 53 215 87 53 216 84 53 217 83 53 218 89 54 219 90 54 220 86 54 221 89 55 222 86 55 223 85 55 224 91 56 225 92 56 226 88 56 227 91 57 228 88 57 229 87 57 230 93 58 231 94 58 232 90 58 233 93 58 234 90 58 235 89 58 236 95 59 237 97 59 238 92 59 239 95 60 240 92 60 241 91 60 242 96 61 243 98 61 244 94 61 245 96 61 246 94 61 247 93 61 248 99 62 249 100 62 250 98 62 251 99 62 252 98 62 253 96 62 254 101 63 255 102 63 256 97 63 257 101 64 258 97 64 259 95 64 260 103 65 261 104 65 262 100 65 263 103 65 264 100 65 265 99 65 266 58 66 267 57 66 268 104 66 269 58 66 270 104 66 271 103 66 272 105 67 273 106 67 274 107 67 275 105 68 276 107 68 277 108 68 278 109 69 279 110 69 280 106 69 281 109 70 282 106 70 283 105 70 284 77 4 285 376 4 286 16 4 287 95 4 288 91 4 289 16 4 290 91 71 291 87 71 292 16 71 293 87 72 294 83 72 295 16 72 296 83 73 297 81 73 298 16 73 299 81 74 300 79 74 301 16 74 302 79 4 303 77 4 304 16 4 305 111 75 306 112 75 307 110 75 308 111 76 309 110 76 310 109 76 311 113 77 312 114 77 313 71 77 314 115 78 315 116 78 316 114 78 317 115 78 318 114 78 319 113 78 320 115 79 321 314 79 322 116 79 323 119 80 324 17 80 325 117 80 326 119 81 327 117 81 328 120 81 329 119 82 330 120 82 331 121 82 332 121 83 333 120 83 334 123 83 335 121 84 336 123 84 337 124 84 338 125 85 339 126 85 340 118 85 341 108 86 342 107 86 343 124 86 344 108 86 345 124 86 346 123 86 347 122 85 348 118 85 349 126 85 350 106 0 351 169 0 352 107 0 353 124 0 354 107 0 355 169 0 356 121 0 357 124 0 358 169 0 359 110 0 360 169 0 361 106 0 362 112 0 363 169 0 364 110 0 365 179 0 366 180 0 367 169 0 368 125 87 369 20 87 370 21 87 371 125 88 372 21 88 373 126 88 374 53 89 375 127 89 376 129 89 377 53 90 378 129 90 379 54 90 380 128 91 381 130 91 382 131 91 383 128 68 384 131 68 385 132 68 386 131 92 387 130 92 388 134 92 389 131 93 390 134 93 391 135 93 392 133 94 393 138 94 394 127 94 395 135 95 396 134 95 397 136 95 398 135 95 399 136 95 400 137 95 401 137 96 402 136 96 403 203 96 404 129 94 405 127 94 406 138 94 407 140 97 408 139 97 409 142 97 410 140 98 411 142 98 412 143 98 413 143 99 414 142 99 415 144 99 416 143 100 417 144 100 418 145 100 419 145 101 420 144 101 421 128 101 422 145 86 423 128 86 424 132 86 425 146 102 426 138 102 427 141 102 428 133 102 429 141 102 430 138 102 431 144 4 432 309 4 433 128 4 434 130 4 435 128 4 436 309 4 437 142 4 438 309 4 439 144 4 440 134 4 441 130 4 442 309 4 443 139 4 444 16 4 445 142 4 446 31 103 447 23 103 448 34 103 449 37 0 450 125 0 451 42 0 452 141 104 453 73 104 454 146 104 455 76 105 456 146 105 457 73 105 458 147 0 459 42 0 460 118 0 461 118 0 462 261 0 463 147 0 464 261 0 465 263 0 466 147 0 467 148 0 468 147 0 469 263 0 470 149 106 471 151 106 472 111 106 473 112 107 474 111 107 475 151 107 476 151 108 477 149 108 478 152 108 479 151 108 480 152 108 481 153 108 482 271 0 483 0 0 484 150 0 485 153 109 486 152 109 487 154 109 488 153 109 489 154 109 490 155 109 491 155 110 492 154 110 493 156 110 494 155 110 495 156 110 496 157 110 497 157 111 498 156 111 499 158 111 500 157 112 501 158 112 502 159 112 503 125 0 504 118 0 505 42 0 506 37 0 507 34 0 508 125 0 509 43 113 510 40 113 511 168 113 512 19 0 513 35 0 514 22 0 515 125 0 516 34 0 517 20 0 518 160 114 519 161 114 520 159 114 521 160 115 522 159 115 523 158 115 524 162 116 525 163 116 526 161 116 527 162 117 528 161 117 529 160 117 530 172 118 531 170 118 532 40 118 533 38 0 534 35 0 535 172 0 536 40 119 537 38 119 538 172 119 539 19 0 540 172 0 541 35 0 542 32 0 543 22 0 544 35 0 545 29 120 546 22 120 547 32 120 548 26 121 549 28 121 550 29 121 551 23 122 552 31 122 553 26 122 554 20 123 555 34 123 556 23 123 557 164 124 558 165 124 559 163 124 560 164 125 561 163 125 562 162 125 563 166 126 564 167 126 565 165 126 566 166 127 567 165 127 568 164 127 569 58 0 570 103 0 571 108 0 572 168 128 573 169 128 574 167 128 575 168 129 576 167 129 577 166 129 578 170 130 579 171 130 580 169 130 581 170 131 582 169 131 583 168 131 584 103 0 585 99 0 586 105 0 587 73 0 588 141 0 589 158 0 590 172 132 591 173 132 592 171 132 593 172 133 594 171 133 595 170 133 596 71 134 597 69 134 598 178 134 599 19 135 600 173 135 601 172 135 602 174 136 603 175 136 604 65 136 605 66 137 606 65 137 607 175 137 608 69 0 609 67 0 610 17 0 611 17 0 612 178 0 613 69 0 614 175 138 615 174 138 616 176 138 617 175 138 618 176 138 619 177 138 620 117 0 621 17 0 622 67 0 623 177 139 624 176 139 625 178 139 626 177 139 627 178 139 628 179 139 629 179 140 630 178 140 631 17 140 632 179 140 633 17 140 634 180 140 635 180 141 636 17 141 637 119 141 638 99 142 639 96 142 640 111 142 641 111 143 642 109 143 643 99 143 644 156 0 645 154 0 646 85 0 647 158 0 648 156 0 649 73 0 650 109 0 651 105 0 652 99 0 653 105 144 654 108 144 655 103 144 656 123 145 657 59 145 658 108 145 659 117 146 660 63 146 661 120 146 662 120 0 663 63 0 664 123 0 665 63 147 666 117 147 667 67 147 668 59 0 669 123 0 670 63 0 671 58 0 672 108 0 673 59 0 674 181 148 675 173 148 676 19 148 677 184 4 678 339 4 679 183 4 680 183 4 681 229 4 682 182 4 683 186 4 684 222 4 685 185 4 686 102 4 687 190 4 688 97 4 689 190 4 690 196 4 691 97 4 692 187 4 693 220 4 694 186 4 695 188 4 696 219 4 697 187 4 698 189 4 699 102 4 700 116 4 701 190 4 702 102 4 703 189 4 704 217 4 705 218 4 706 194 4 707 194 149 708 201 149 709 217 149 710 192 4 711 337 4 712 195 4 713 80 4 714 200 4 715 78 4 716 88 4 717 92 4 718 196 4 719 92 4 720 97 4 721 196 4 722 196 4 723 197 4 724 88 4 725 198 150 726 199 150 727 84 150 728 197 151 729 198 151 730 88 151 731 82 152 732 84 152 733 199 152 734 200 153 735 82 153 736 199 153 737 193 4 738 78 4 739 200 4 740 215 4 741 217 4 742 201 4 743 114 154 744 326 154 745 72 154 746 208 4 747 86 4 748 205 4 749 224 155 750 209 155 751 184 155 752 210 4 753 86 4 754 208 4 755 213 4 756 138 4 757 212 4 758 216 4 759 129 4 760 214 4 761 223 156 762 50 156 763 216 156 764 220 4 765 187 4 766 219 4 767 218 157 768 219 157 769 188 157 770 221 158 771 186 158 772 220 158 773 188 159 774 191 159 775 218 159 776 222 160 777 186 160 778 221 160 779 191 4 780 194 4 781 218 4 782 202 161 783 228 161 784 201 161 785 204 4 786 227 4 787 202 4 788 207 4 789 209 4 790 225 4 791 206 162 792 227 162 793 204 162 794 211 4 795 184 4 796 209 4 797 224 163 798 225 163 799 209 163 800 225 4 801 226 4 802 207 4 803 206 4 804 207 4 805 226 4 806 227 164 807 206 164 808 226 164 809 228 4 810 202 4 811 227 4 812 215 4 813 201 4 814 228 4 815 231 4 816 254 4 817 230 4 818 232 4 819 254 4 820 231 4 821 230 4 822 242 4 823 229 4 824 233 165 825 252 165 826 232 165 827 234 166 828 235 166 829 227 166 830 234 166 831 227 166 832 226 166 833 235 167 834 237 167 835 228 167 836 235 167 837 228 167 838 227 167 839 248 4 840 249 4 841 240 4 842 236 168 843 251 168 844 233 168 845 237 169 846 239 169 847 215 169 848 237 169 849 215 169 850 228 169 851 240 170 852 244 170 853 248 170 854 182 4 855 229 4 856 242 4 857 22 171 858 243 171 859 181 171 860 22 172 861 181 172 862 19 172 863 247 4 864 248 4 865 244 4 866 242 4 867 230 4 868 254 4 869 25 173 870 245 173 871 243 173 872 25 174 873 243 174 874 22 174 875 193 4 876 247 4 877 244 4 878 28 175 879 246 175 880 245 175 881 28 176 882 245 176 883 25 176 884 31 177 885 250 177 886 246 177 887 31 178 888 246 178 889 28 178 890 252 150 891 233 150 892 251 150 893 249 179 894 251 179 895 236 179 896 253 180 897 232 180 898 252 180 899 236 4 900 238 4 901 249 4 902 254 4 903 232 4 904 253 4 905 238 4 906 240 4 907 249 4 908 34 181 909 255 181 910 250 181 911 34 182 912 250 182 913 31 182 914 37 183 915 256 183 916 255 183 917 37 184 918 255 184 919 34 184 920 244 185 921 78 185 922 193 185 923 42 186 924 257 186 925 256 186 926 42 187 927 256 187 928 37 187 929 82 4 930 200 4 931 80 4 932 84 188 933 88 188 934 198 188 935 147 189 936 258 189 937 257 189 938 147 190 939 257 190 940 42 190 941 148 191 942 259 191 943 258 191 944 148 192 945 258 192 946 147 192 947 272 193 948 273 193 949 4 193 950 273 194 951 274 194 952 4 194 953 5 0 954 4 0 955 274 0 956 361 195 957 271 195 958 264 195 959 150 195 960 264 195 961 271 195 962 274 0 963 275 0 964 5 0 965 150 196 966 346 196 967 264 196 968 268 197 969 267 197 970 235 197 971 153 0 972 155 0 973 151 0 974 112 0 975 151 0 976 155 0 977 112 0 978 155 0 979 157 0 980 112 198 981 157 198 982 159 198 983 112 0 984 159 0 985 161 0 986 112 199 987 161 199 988 163 199 989 112 200 990 163 200 991 165 200 992 112 201 993 165 201 994 167 201 995 112 202 996 167 202 997 169 202 998 66 0 999 175 0 1000 171 0 1001 173 0 1002 66 0 1003 171 0 1004 175 0 1005 177 0 1006 171 0 1007 169 0 1008 171 0 1009 177 0 1010 270 0 1011 0 0 1012 271 0 1013 66 0 1014 181 0 1015 62 0 1016 177 0 1017 179 0 1018 169 0 1019 180 0 1020 119 0 1021 169 0 1022 119 0 1023 121 0 1024 169 0 1025 234 0 1026 277 0 1027 269 0 1028 266 145 1029 265 145 1030 237 145 1031 241 0 1032 239 0 1033 265 0 1034 275 0 1035 276 0 1036 10 0 1037 10 0 1038 5 0 1039 275 0 1040 262 0 1041 260 0 1042 276 0 1043 260 203 1044 10 203 1045 276 203 1046 276 0 1047 241 0 1048 262 0 1049 265 144 1050 262 144 1051 241 144 1052 239 0 1053 237 0 1054 265 0 1055 237 0 1056 235 0 1057 266 0 1058 267 0 1059 266 0 1060 235 0 1061 235 204 1062 234 204 1063 268 204 1064 269 0 1065 268 0 1066 234 0 1067 270 205 1068 269 205 1069 277 205 1070 277 206 1071 278 206 1072 270 206 1073 0 207 1074 270 207 1075 278 207 1076 279 0 1077 150 0 1078 1 0 1079 0 0 1080 1 0 1081 150 0 1082 280 0 1083 279 0 1084 288 0 1085 2 0 1086 288 0 1087 279 0 1088 173 0 1089 181 0 1090 66 0 1091 243 0 1092 62 0 1093 181 0 1094 245 0 1095 62 0 1096 243 0 1097 245 0 1098 246 0 1099 75 0 1100 246 0 1101 250 0 1102 75 0 1103 250 0 1104 255 0 1105 75 0 1106 255 0 1107 256 0 1108 75 0 1109 256 0 1110 257 0 1111 75 0 1112 74 0 1113 75 0 1114 257 0 1115 74 0 1116 257 0 1117 258 0 1118 74 208 1119 258 208 1120 259 208 1121 259 0 1122 340 0 1123 74 0 1124 74 209 1125 361 209 1126 264 209 1127 74 210 1128 264 210 1129 346 210 1130 288 0 1131 294 0 1132 280 0 1133 281 0 1134 280 0 1135 294 0 1136 203 211 1137 136 211 1138 285 211 1139 282 0 1140 281 0 1141 294 0 1142 203 212 1143 285 212 1144 287 212 1145 203 213 1146 287 213 1147 205 213 1148 283 214 1149 282 214 1150 296 214 1151 295 215 1152 296 215 1153 282 215 1154 294 0 1155 295 0 1156 282 0 1157 205 216 1158 287 216 1159 291 216 1160 205 217 1161 291 217 1162 208 217 1163 296 218 1164 297 218 1165 283 218 1166 208 219 1167 291 219 1168 292 219 1169 208 220 1170 292 220 1171 210 220 1172 210 221 1173 292 221 1174 293 221 1175 210 222 1176 293 222 1177 212 222 1178 284 223 1179 283 223 1180 297 223 1181 297 224 1182 298 224 1183 284 224 1184 286 0 1185 284 0 1186 298 0 1187 289 225 1188 286 225 1189 298 225 1190 298 226 1191 299 226 1192 289 226 1193 290 227 1194 289 227 1195 299 227 1196 290 0 1197 299 0 1198 300 0 1199 301 228 1200 213 228 1201 212 228 1202 301 229 1203 212 229 1204 293 229 1205 303 230 1206 214 230 1207 213 230 1208 303 231 1209 213 231 1210 301 231 1211 300 0 1212 317 0 1213 290 0 1214 305 232 1215 216 232 1216 214 232 1217 305 233 1218 214 233 1219 303 233 1220 302 234 1221 290 234 1222 317 234 1223 317 0 1224 318 0 1225 302 0 1226 306 235 1227 223 235 1228 216 235 1229 306 235 1230 216 235 1231 305 235 1232 307 236 1233 308 236 1234 223 236 1235 307 237 1236 223 237 1237 306 237 1238 309 238 1239 310 238 1240 308 238 1241 309 239 1242 308 239 1243 307 239 1244 55 0 1245 323 0 1246 61 0 1247 311 240 1248 312 240 1249 310 240 1250 311 241 1251 310 241 1252 309 241 1253 16 242 1254 312 242 1255 311 242 1256 65 0 1257 61 0 1258 313 0 1259 65 0 1260 313 0 1261 314 0 1262 65 0 1263 314 0 1264 115 0 1265 315 243 1266 316 243 1267 101 243 1268 102 244 1269 101 244 1270 316 244 1271 316 245 1272 315 245 1273 322 245 1274 316 246 1275 322 246 1276 324 246 1277 320 0 1278 321 0 1279 51 0 1280 51 0 1281 45 0 1282 320 0 1283 321 0 1284 323 0 1285 51 0 1286 319 0 1287 320 0 1288 45 0 1289 55 0 1290 51 0 1291 323 0 1292 313 0 1293 61 0 1294 323 0 1295 45 247 1296 48 247 1297 319 247 1298 318 248 1299 319 248 1300 48 248 1301 48 0 1302 304 0 1303 318 0 1304 304 0 1305 302 0 1306 318 0 1307 324 249 1308 322 249 1309 325 249 1310 324 250 1311 325 250 1312 326 250 1313 71 251 1314 178 251 1315 113 251 1316 326 252 1317 325 252 1318 327 252 1319 326 253 1320 327 253 1321 328 253 1322 96 254 1323 149 254 1324 111 254 1325 139 255 1326 140 255 1327 327 255 1328 328 255 1329 327 255 1330 140 255 1331 312 242 1332 16 242 1333 329 242 1334 96 0 1335 93 0 1336 149 0 1337 152 256 1338 149 256 1339 93 256 1340 15 257 1341 330 257 1342 329 257 1343 15 257 1344 329 257 1345 16 257 1346 14 258 1347 331 258 1348 330 258 1349 14 259 1350 330 259 1351 15 259 1352 93 260 1353 89 260 1354 152 260 1355 13 261 1356 332 261 1357 331 261 1358 13 262 1359 331 262 1360 14 262 1361 89 263 1362 85 263 1363 152 263 1364 12 264 1365 333 264 1366 332 264 1367 12 265 1368 332 265 1369 13 265 1370 154 0 1371 152 0 1372 85 0 1373 11 266 1374 334 266 1375 333 266 1376 11 266 1377 333 266 1378 12 266 1379 85 0 1380 73 0 1381 156 0 1382 9 267 1383 335 267 1384 334 267 1385 9 268 1386 334 268 1387 11 268 1388 141 0 1389 133 0 1390 158 0 1391 8 269 1392 336 269 1393 335 269 1394 8 270 1395 335 270 1396 9 270 1397 162 0 1398 160 0 1399 127 0 1400 133 0 1401 127 0 1402 160 0 1403 160 0 1404 158 0 1405 133 0 1406 7 271 1407 337 271 1408 336 271 1409 7 272 1410 336 272 1411 8 272 1412 164 0 1413 162 0 1414 127 0 1415 127 0 1416 53 0 1417 164 0 1418 53 123 1419 49 123 1420 164 123 1421 166 103 1422 164 103 1423 49 103 1424 6 273 1425 338 273 1426 337 273 1427 6 274 1428 337 274 1429 7 274 1430 49 275 1431 43 275 1432 166 275 1433 168 276 1434 166 276 1435 43 276 1436 6 277 1437 185 277 1438 338 277 1439 174 0 1440 65 0 1441 115 0 1442 18 278 1443 339 278 1444 211 278 1445 115 0 1446 113 0 1447 174 0 1448 174 0 1449 113 0 1450 176 0 1451 176 0 1452 113 0 1453 178 0 1454 18 279 1455 229 279 1456 339 279 1457 311 280 1458 309 280 1459 142 280 1460 136 281 1461 134 281 1462 309 281 1463 136 282 1464 309 282 1465 307 282 1466 136 283 1467 307 283 1468 306 283 1469 136 284 1470 306 284 1471 305 284 1472 136 4 1473 305 4 1474 303 4 1475 136 285 1476 303 285 1477 301 285 1478 136 286 1479 301 286 1480 293 286 1481 136 287 1482 293 287 1483 292 287 1484 136 4 1485 292 4 1486 291 4 1487 287 4 1488 285 4 1489 291 4 1490 136 288 1491 291 288 1492 285 288 1493 311 289 1494 142 289 1495 16 289 1496 139 4 1497 327 4 1498 16 4 1499 327 4 1500 325 4 1501 16 4 1502 325 290 1503 322 290 1504 16 290 1505 322 4 1506 315 4 1507 16 4 1508 315 4 1509 101 4 1510 16 4 1511 101 4 1512 95 4 1513 16 4 1514 239 291 1515 241 291 1516 217 291 1517 239 291 1518 217 291 1519 215 291 1520 241 292 1521 276 292 1522 218 292 1523 241 292 1524 218 292 1525 217 292 1526 276 293 1527 275 293 1528 219 293 1529 276 293 1530 219 293 1531 218 293 1532 275 294 1533 274 294 1534 220 294 1535 275 294 1536 220 294 1537 219 294 1538 274 295 1539 273 295 1540 221 295 1541 274 295 1542 221 295 1543 220 295 1544 273 296 1545 272 296 1546 222 296 1547 273 297 1548 222 297 1549 221 297 1550 222 298 1551 263 298 1552 195 298 1553 272 299 1554 263 299 1555 222 299 1556 192 300 1557 195 300 1558 261 300 1559 263 301 1560 261 301 1561 195 301 1562 299 302 1563 248 302 1564 247 302 1565 299 303 1566 247 303 1567 300 303 1568 298 304 1569 249 304 1570 248 304 1571 298 305 1572 248 305 1573 299 305 1574 297 306 1575 251 306 1576 249 306 1577 297 307 1578 249 307 1579 298 307 1580 296 308 1581 252 308 1582 251 308 1583 296 308 1584 251 308 1585 297 308 1586 295 309 1587 253 309 1588 252 309 1589 295 309 1590 252 309 1591 296 309 1592 122 310 1593 192 310 1594 261 310 1595 294 311 1596 254 311 1597 253 311 1598 294 311 1599 253 311 1600 295 311 1601 122 310 1602 261 310 1603 118 310 1604 259 312 1605 148 312 1606 340 312 1607 3 312 1608 340 312 1609 148 312 1610 4 313 1611 341 313 1612 340 313 1613 4 313 1614 340 313 1615 3 313 1616 294 314 1617 288 314 1618 242 314 1619 5 315 1620 342 315 1621 341 315 1622 5 315 1623 341 315 1624 4 315 1625 242 314 1626 254 314 1627 294 314 1628 10 316 1629 343 316 1630 342 316 1631 10 317 1632 342 317 1633 5 317 1634 260 318 1635 344 318 1636 343 318 1637 260 319 1638 343 319 1639 10 319 1640 262 320 1641 345 320 1642 344 320 1643 262 321 1644 344 321 1645 260 321 1646 279 322 1647 346 322 1648 150 322 1649 265 323 1650 347 323 1651 345 323 1652 265 324 1653 345 324 1654 262 324 1655 346 325 1656 279 325 1657 280 325 1658 346 326 1659 280 326 1660 348 326 1661 348 327 1662 280 327 1663 281 327 1664 348 328 1665 281 328 1666 350 328 1667 266 329 1668 349 329 1669 347 329 1670 266 329 1671 347 329 1672 265 329 1673 350 330 1674 281 330 1675 282 330 1676 350 331 1677 282 331 1678 351 331 1679 267 332 1680 352 332 1681 349 332 1682 267 333 1683 349 333 1684 266 333 1685 351 334 1686 282 334 1687 283 334 1688 351 335 1689 283 335 1690 353 335 1691 268 336 1692 354 336 1693 352 336 1694 268 337 1695 352 337 1696 267 337 1697 353 338 1698 283 338 1699 284 338 1700 353 339 1701 284 339 1702 355 339 1703 269 340 1704 356 340 1705 354 340 1706 269 341 1707 354 341 1708 268 341 1709 355 342 1710 284 342 1711 286 342 1712 355 343 1713 286 343 1714 357 343 1715 357 344 1716 286 344 1717 289 344 1718 357 345 1719 289 345 1720 359 345 1721 270 346 1722 358 346 1723 356 346 1724 270 346 1725 356 346 1726 269 346 1727 359 347 1728 289 347 1729 290 347 1730 359 348 1731 290 348 1732 360 348 1733 271 349 1734 361 349 1735 358 349 1736 271 349 1737 358 349 1738 270 349 1739 290 350 1740 74 350 1741 360 350 1742 346 0 1743 348 0 1744 350 0 1745 346 0 1746 350 0 1747 351 0 1748 346 0 1749 351 0 1750 353 0 1751 346 351 1752 353 351 1753 355 351 1754 346 352 1755 355 352 1756 357 352 1757 346 0 1758 357 0 1759 359 0 1760 74 0 1761 346 0 1762 360 0 1763 359 0 1764 360 0 1765 346 0 1766 362 353 1767 229 353 1768 18 353 1769 342 0 1770 74 0 1771 341 0 1772 343 0 1773 74 0 1774 342 0 1775 340 0 1776 341 0 1777 74 0 1778 344 354 1779 74 354 1780 343 354 1781 345 355 1782 74 355 1783 344 355 1784 347 356 1785 74 356 1786 345 356 1787 349 0 1788 74 0 1789 347 0 1790 352 357 1791 74 357 1792 349 357 1793 354 358 1794 74 358 1795 352 358 1796 356 0 1797 74 0 1798 354 0 1799 358 0 1800 74 0 1801 356 0 1802 361 0 1803 74 0 1804 358 0 1805 229 359 1806 362 359 1807 363 359 1808 229 360 1809 363 360 1810 230 360 1811 364 361 1812 185 361 1813 6 361 1814 230 362 1815 363 362 1816 365 362 1817 230 363 1818 365 363 1819 231 363 1820 366 364 1821 186 364 1822 185 364 1823 366 365 1824 185 365 1825 364 365 1826 231 366 1827 365 366 1828 367 366 1829 231 367 1830 367 367 1831 232 367 1832 368 368 1833 187 368 1834 186 368 1835 368 315 1836 186 315 1837 366 315 1838 232 369 1839 367 369 1840 369 369 1841 232 369 1842 369 369 1843 233 369 1844 233 370 1845 369 370 1846 371 370 1847 233 371 1848 371 371 1849 236 371 1850 370 372 1851 188 372 1852 187 372 1853 370 373 1854 187 373 1855 368 373 1856 236 374 1857 371 374 1858 372 374 1859 236 375 1860 372 375 1861 238 375 1862 373 376 1863 191 376 1864 188 376 1865 373 376 1866 188 376 1867 370 376 1868 238 377 1869 372 377 1870 374 377 1871 238 378 1872 374 378 1873 240 378 1874 375 379 1875 194 379 1876 191 379 1877 375 380 1878 191 380 1879 373 380 1880 240 381 1881 374 381 1882 376 381 1883 240 382 1884 376 382 1885 244 382 1886 377 323 1887 201 323 1888 194 323 1889 377 383 1890 194 383 1891 375 383 1892 244 384 1893 376 384 1894 78 384 1895 77 385 1896 78 385 1897 376 385 1898 378 329 1899 202 329 1900 201 329 1901 378 386 1902 201 386 1903 377 386 1904 379 387 1905 204 387 1906 202 387 1907 379 388 1908 202 388 1909 378 388 1910 380 389 1911 206 389 1912 204 389 1913 380 390 1914 204 390 1915 379 390 1916 365 71 1917 16 71 1918 367 71 1919 369 391 1920 367 391 1921 16 391 1922 363 4 1923 16 4 1924 365 4 1925 371 392 1926 369 392 1927 16 392 1928 362 4 1929 16 4 1930 363 4 1931 18 4 1932 16 4 1933 362 4 1934 372 4 1935 371 4 1936 16 4 1937 376 4 1938 374 4 1939 16 4 1940 374 4 1941 372 4 1942 16 4 1943 381 393 1944 207 393 1945 206 393 1946 381 393 1947 206 393 1948 380 393 1949 382 394 1950 209 394 1951 207 394 1952 382 395 1953 207 395 1954 381 395 1955 189 79 1956 116 79 1957 314 79 1958 383 396 1959 211 396 1960 209 396 1961 383 397 1962 209 397 1963 382 397 1964 189 398 1965 314 398 1966 190 398 1967 313 398 1968 190 398 1969 314 398 1970 18 399 1971 211 399 1972 383 399 1973 323 400 1974 196 400 1975 313 400 1976 190 400 1977 313 400 1978 196 400 1979 323 401 1980 321 401 1981 197 401 1982 323 401 1983 197 401 1984 196 401 1985 321 402 1986 320 402 1987 198 402 1988 321 402 1989 198 402 1990 197 402 1991 320 403 1992 319 403 1993 199 403 1994 320 403 1995 199 403 1996 198 403 1997 364 404 1998 18 404 1999 366 404 2000 368 405 2001 366 405 2002 18 405 2003 6 4 2004 18 4 2005 364 4 2006 370 406 2007 368 406 2008 18 406 2009 370 4 2010 18 4 2011 383 4 2012 370 407 2013 383 407 2014 382 407 2015 370 4 2016 382 4 2017 381 4 2018 370 4 2019 381 4 2020 380 4 2021 370 4 2022 380 4 2023 379 4 2024 378 4 2025 373 4 2026 379 4 2027 377 4 2028 375 4 2029 378 4 2030 373 4 2031 378 4 2032 375 4 2033 370 4 2034 379 4 2035 373 4 2036 319 408 2037 318 408 2038 200 408 2039 319 409 2040 200 409 2041 199 409 2042 300 410 2043 247 410 2044 193 410 2045 318 411 2046 317 411 2047 193 411 2048 318 412 2049 193 412 2050 200 412 2051 193 413 2052 317 413 2053 300 413 2054 308 414 2055 44 414 2056 223 414 2057 74 415 2058 290 415 2059 302 415 2060 310 4 2061 41 4 2062 308 4 2063 74 416 2064 302 416 2065 304 416 2066 74 417 2067 304 417 2068 75 417 2069 312 418 2070 41 418 2071 310 418 2072 146 4 2073 212 4 2074 138 4 2075 48 419 2076 47 419 2077 75 419 2078 48 420 2079 75 420 2080 304 420 2081 138 4 2082 213 4 2083 129 4 2084 316 4 2085 116 4 2086 102 4 2087 324 4 2088 114 4 2089 316 4 2090 328 4 2091 70 4 2092 326 4 2093 140 4 2094 68 4 2095 328 4 2096 326 4 2097 114 4 2098 324 4 2099 333 156 2100 334 156 2101 24 156 2102 122 4 2103 126 4 2104 336 4 2105 335 4 2106 126 4 2107 334 4 2108 338 4 2109 195 4 2110 337 4 2111 336 4 2112 337 4 2113 122 4 2114 192 4 2115 122 4 2116 337 4 2117 185 4 2118 222 4 2119 338 4 2120 195 4 2121 338 4 2122 222 4 2123 229 4 2124 183 4 2125 339 4 2126 211 4 2127 339 4 2128 184 4 2129 329 4 2130 36 4 2131 312 4 2132 24 421 2133 27 421 2134 333 421 2135 332 4 2136 30 4 2137 331 4 2138 21 422 2139 24 422 2140 334 422 2141 126 4 2142 21 4 2143 334 4 2144 335 4 2145 336 4 2146 126 4 2147 331 4 2148 30 4 2149 330 4 2150 330 4 2151 36 4 2152 329 4 2153 129 4 2154 216 4 2155 54 4 2156 50 423 2157 223 423 2158 44 423 2159 44 424 2160 308 424 2161 41 424 2162 41 425 2163 312 425 2164 39 425 2165 54 422 2166 216 422 2167 50 422 2168 39 4 2169 312 4 2170 36 4 2171 332 426 2172 333 426 2173 27 426 2174 30 427 2175 332 427 2176 27 427 2177 33 4 2178 330 4 2179 30 4 2180 36 428 2181 330 428 2182 33 428 2183 137 429 2184 100 429 2185 135 429 2186 94 430 2187 205 430 2188 90 430 2189 94 4 2190 98 4 2191 203 4 2192 203 4 2193 205 4 2194 94 4 2195 86 431 2196 90 431 2197 205 431 2198 212 4 2199 76 4 2200 210 4 2201 214 4 2202 129 4 2203 213 4 2204 76 4 2205 212 4 2206 146 4 2207 86 4 2208 210 4 2209 76 4 2210 143 432 2211 64 432 2212 140 432 2213 104 4 2214 57 4 2215 132 4 2216 60 4 2217 64 4 2218 145 4 2219 143 4 2220 145 4 2221 64 4 2222 68 4 2223 140 4 2224 64 4 2225 70 4 2226 328 4 2227 68 4 2228 72 433 2229 326 433 2230 70 433 2231 116 4 2232 316 4 2233 114 4 2234 145 161 2235 132 161 2236 60 161 2237 57 4 2238 60 4 2239 132 4 2240 104 434 2241 132 434 2242 131 434 2243 135 4 2244 100 4 2245 131 4 2246 137 4 2247 203 4 2248 98 4 2249 100 435 2250 137 435 2251 98 435 2252 104 4 2253 131 4 2254 100 4 2255 288 436 2256 2 436 2257 242 436 2258 182 436 2259 242 436 2260 2 436 2261 2 437 2262 1 437 2263 183 437 2264 2 437 2265 183 437 2266 182 437 2267 1 438 2268 0 438 2269 184 438 2270 1 438 2271 184 438 2272 183 438 2273 0 439 2274 224 439 2275 184 439 2276 0 440 2277 278 440 2278 224 440 2279 278 441 2280 277 441 2281 225 441 2282 278 441 2283 225 441 2284 224 441 2285 277 442 2286 234 442 2287 226 442 2288 277 442 2289 226 442 2290 225 442 2291</p>
        </triangles>
      </mesh>
    </geometry>
  </library_geometries>
  <library_visual_scenes>
    <visual_scene id="Scene" name="Scene">
      <node id="obj_0" name="obj_0" type="NODE">
        <matrix sid="transform">1.06385e-7 -1.33566e-7 -1 0 0.2650756 0.9642276 -1.00588e-7 0 0.9642276 -0.2650756 1.37985e-7 0 0 0 0 1</matrix>
        <instance_geometry url="#obj_0-mesh" name="obj_0">
          <bind_material>
            <technique_common>
              <instance_material symbol="color_16089887-material" target="#color_16089887-material">
                <bind_vertex_input semantic="UVMap" input_semantic="TEXCOORD" input_set="0"/>
              </instance_material>
            </technique_common>
          </bind_material>
        </instance_geometry>
      </node>
    </visual_scene>
  </library_visual_scenes>
  <scene>
    <instance_visual_scene url="#Scene"/>
  </scene>
</COLLADA>